<svg xmlns="http://www.w3.org/2000/svg" viewBox="0 0 400 400" fill="none"><defs><linearGradient id="sky" x1="0" y1="0" x2="0" y2="1"><stop offset="0" stop-color="#e8f4ee"/><stop offset="1" stop-color="#ffffff"/></linearGradient></defs><rect width="400" height="400" fill="url(#sky)"/><g transform="translate(0,150) scale(0.83333)"><line x1="448" y1="60" x2="460" y2="60" stroke="#f4b740" stroke-width="5" stroke-linecap="round" opacity=".85"/><line x1="443" y1="79" x2="453" y2="85" stroke="#f4b740" stroke-width="5" stroke-linecap="round" opacity=".85"/><line x1="429" y1="93" x2="435" y2="103" stroke="#f4b740" stroke-width="5" stroke-linecap="round" opacity=".85"/><line x1="410" y1="98" x2="410" y2="110" stroke="#f4b740" stroke-width="5" stroke-linecap="round" opacity=".85"/><line x1="391" y1="93" x2="385" y2="103" stroke="#f4b740" stroke-width="5" stroke-linecap="round" opacity=".85"/><line x1="377" y1="79" x2="367" y2="85" stroke="#f4b740" stroke-width="5" stroke-linecap="round" opacity=".85"/><line x1="372" y1="60" x2="360" y2="60" stroke="#f4b740" stroke-width="5" stroke-linecap="round" opacity=".85"/><line x1="377" y1="41" x2="367" y2="35" stroke="#f4b740" stroke-width="5" stroke-linecap="round" opacity=".85"/><line x1="391" y1="27" x2="385" y2="17" stroke="#f4b740" stroke-width="5" stroke-linecap="round" opacity=".85"/><line x1="410" y1="22" x2="410" y2="10" stroke="#f4b740" stroke-width="5" stroke-linecap="round" opacity=".85"/><line x1="429" y1="27" x2="435" y2="17" stroke="#f4b740" stroke-width="5" stroke-linecap="round" opacity=".85"/><line x1="443" y1="41" x2="453" y2="35" stroke="#f4b740" stroke-width="5" stroke-linecap="round" opacity=".85"/><circle cx="410" cy="60" r="30" fill="#f4b740"/><rect x="0" y="232" width="480" height="68" fill="#d3e9dd"/><path d="M60 120 L250 90 L235 150 L70 165 Z" fill="#1f8f6f" opacity=".9"/><path d="M270 96 L430 130 L410 175 L255 152 Z" fill="#146b52" opacity=".9"/><line x1="66" y1="120" x2="70" y2="232" stroke="#146b52" stroke-width="6"/><line x1="248" y1="92" x2="250" y2="232" stroke="#146b52" stroke-width="6"/><line x1="428" y1="128" x2="430" y2="232" stroke="#146b52" stroke-width="6"/><ellipse cx="250" cy="250" rx="150" ry="12" fill="#146b52" opacity=".18"/></g></svg>