<svg xmlns="http://www.w3.org/2000/svg" viewBox="0 0 400 400" fill="none"><defs><linearGradient id="sky" x1="0" y1="0" x2="0" y2="1"><stop offset="0" stop-color="#e8f4ee"/><stop offset="1" stop-color="#ffffff"/></linearGradient></defs><rect width="400" height="400" fill="url(#sky)"/><g transform="translate(0,150) scale(0.83333)"><line x1="98" y1="60" x2="110" y2="60" stroke="#f4b740" stroke-width="5" stroke-linecap="round" opacity=".85"/><line x1="93" y1="79" x2="103" y2="85" stroke="#f4b740" stroke-width="5" stroke-linecap="round" opacity=".85"/><line x1="79" y1="93" x2="85" y2="103" stroke="#f4b740" stroke-width="5" stroke-linecap="round" opacity=".85"/><line x1="60" y1="98" x2="60" y2="110" stroke="#f4b740" stroke-width="5" stroke-linecap="round" opacity=".85"/><line x1="41" y1="93" x2="35" y2="103" stroke="#f4b740" stroke-width="5" stroke-linecap="round" opacity=".85"/><line x1="27" y1="79" x2="17" y2="85" stroke="#f4b740" stroke-width="5" stroke-linecap="round" opacity=".85"/><line x1="22" y1="60" x2="10" y2="60" stroke="#f4b740" stroke-width="5" stroke-linecap="round" opacity=".85"/><line x1="27" y1="41" x2="17" y2="35" stroke="#f4b740" stroke-width="5" stroke-linecap="round" opacity=".85"/><line x1="41" y1="27" x2="35" y2="17" stroke="#f4b740" stroke-width="5" stroke-linecap="round" opacity=".85"/><line x1="60" y1="22" x2="60" y2="10" stroke="#f4b740" stroke-width="5" stroke-linecap="round" opacity=".85"/><line x1="79" y1="27" x2="85" y2="17" stroke="#f4b740" stroke-width="5" stroke-linecap="round" opacity=".85"/><line x1="93" y1="41" x2="103" y2="35" stroke="#f4b740" stroke-width="5" stroke-linecap="round" opacity=".85"/><circle cx="60" cy="60" r="30" fill="#f4b740"/><rect x="0" y="232" width="480" height="68" fill="#d3e9dd"/><rect x="145" y="200" width="10" height="32" rx="4" fill="#9c6b3f"/><circle cx="150" cy="182" r="36" fill="#1f8f6f"/><circle cx="124" cy="196" r="26" fill="#146b52"/><circle cx="176" cy="194" r="26" fill="#146b52"/><rect x="295" y="206" width="10" height="26" rx="4" fill="#9c6b3f"/><circle cx="300" cy="192" r="29" fill="#1f8f6f"/><circle cx="279" cy="203" r="21" fill="#146b52"/><circle cx="321" cy="201" r="21" fill="#146b52"/><rect x="395" y="211" width="10" height="21" rx="4" fill="#9c6b3f"/><circle cx="400" cy="199" r="24" fill="#1f8f6f"/><circle cx="383" cy="208" r="17" fill="#146b52"/><circle cx="417" cy="207" r="17" fill="#146b52"/><rect x="0" y="256" width="480" height="6" fill="#146b52" opacity=".25"/></g></svg>