<svg xmlns="http://www.w3.org/2000/svg" viewBox="0 0 480 300" fill="none"><defs><linearGradient id="sky" x1="0" y1="0" x2="0" y2="1"><stop offset="0" stop-color="#e8f4ee"/><stop offset="1" stop-color="#ffffff"/></linearGradient></defs><rect width="480" height="300" fill="url(#sky)"/><rect x="0" y="232" width="480" height="68" fill="#d3e9dd"/><line x1="278" y1="70" x2="290" y2="70" stroke="#f4b740" stroke-width="5" stroke-linecap="round" opacity=".85"/><line x1="273" y1="89" x2="283" y2="95" stroke="#f4b740" stroke-width="5" stroke-linecap="round" opacity=".85"/><line x1="259" y1="103" x2="265" y2="113" stroke="#f4b740" stroke-width="5" stroke-linecap="round" opacity=".85"/><line x1="240" y1="108" x2="240" y2="120" stroke="#f4b740" stroke-width="5" stroke-linecap="round" opacity=".85"/><line x1="221" y1="103" x2="215" y2="113" stroke="#f4b740" stroke-width="5" stroke-linecap="round" opacity=".85"/><line x1="207" y1="89" x2="197" y2="95" stroke="#f4b740" stroke-width="5" stroke-linecap="round" opacity=".85"/><line x1="202" y1="70" x2="190" y2="70" stroke="#f4b740" stroke-width="5" stroke-linecap="round" opacity=".85"/><line x1="207" y1="51" x2="197" y2="45" stroke="#f4b740" stroke-width="5" stroke-linecap="round" opacity=".85"/><line x1="221" y1="37" x2="215" y2="27" stroke="#f4b740" stroke-width="5" stroke-linecap="round" opacity=".85"/><line x1="240" y1="32" x2="240" y2="20" stroke="#f4b740" stroke-width="5" stroke-linecap="round" opacity=".85"/><line x1="259" y1="37" x2="265" y2="27" stroke="#f4b740" stroke-width="5" stroke-linecap="round" opacity=".85"/><line x1="273" y1="51" x2="283" y2="45" stroke="#f4b740" stroke-width="5" stroke-linecap="round" opacity=".85"/><circle cx="240" cy="70" r="30" fill="#f4b740"/><rect x="60" y="210" width="360" height="26" rx="6" fill="#ffffff" stroke="#146b52" stroke-width="2"/><line x1="240" y1="100" x2="150" y2="205" stroke="#f4b740" stroke-width="5" stroke-linecap="round"/><line x1="240" y1="100" x2="330" y2="205" stroke="#f4b740" stroke-width="5" stroke-linecap="round"/><line x1="150" y1="205" x2="120" y2="150" stroke="#f4b740" stroke-width="4" stroke-dasharray="3 6" stroke-linecap="round"/><line x1="330" y1="205" x2="360" y2="150" stroke="#f4b740" stroke-width="4" stroke-dasharray="3 6" stroke-linecap="round"/></svg>