<svg xmlns="http://www.w3.org/2000/svg" viewBox="0 0 480 300" fill="none"><defs><linearGradient id="sky" x1="0" y1="0" x2="0" y2="1"><stop offset="0" stop-color="#e8f4ee"/><stop offset="1" stop-color="#ffffff"/></linearGradient></defs><rect width="480" height="300" fill="url(#sky)"/><defs><clipPath id="pv"><rect x="42" y="58" width="396" height="188" rx="14"/></clipPath></defs><rect x="42" y="58" width="396" height="188" rx="14" fill="#d3e9dd"/><g clip-path="url(#pv)"><rect x="-40" y="60" width="78" height="28" rx="4" fill="#ffffff" stroke="#1f8f6f" stroke-width="2.5"/><rect x="44" y="60" width="78" height="28" rx="4" fill="#d3e9dd" stroke="#1f8f6f" stroke-width="2.5"/><rect x="128" y="60" width="78" height="28" rx="4" fill="#ffffff" stroke="#1f8f6f" stroke-width="2.5"/><rect x="212" y="60" width="78" height="28" rx="4" fill="#ffffff" stroke="#1f8f6f" stroke-width="2.5"/><rect x="296" y="60" width="78" height="28" rx="4" fill="#d3e9dd" stroke="#1f8f6f" stroke-width="2.5"/><rect x="380" y="60" width="78" height="28" rx="4" fill="#ffffff" stroke="#1f8f6f" stroke-width="2.5"/><rect x="464" y="60" width="78" height="28" rx="4" fill="#ffffff" stroke="#1f8f6f" stroke-width="2.5"/><rect x="548" y="60" width="78" height="28" rx="4" fill="#d3e9dd" stroke="#1f8f6f" stroke-width="2.5"/><rect x="-82" y="92" width="78" height="28" rx="4" fill="#d3e9dd" stroke="#1f8f6f" stroke-width="2.5"/><rect x="2" y="92" width="78" height="28" rx="4" fill="#ffffff" stroke="#1f8f6f" stroke-width="2.5"/><rect x="86" y="92" width="78" height="28" rx="4" fill="#ffffff" stroke="#1f8f6f" stroke-width="2.5"/><rect x="170" y="92" width="78" height="28" rx="4" fill="#d3e9dd" stroke="#1f8f6f" stroke-width="2.5"/><rect x="254" y="92" width="78" height="28" rx="4" fill="#ffffff" stroke="#1f8f6f" stroke-width="2.5"/><rect x="338" y="92" width="78" height="28" rx="4" fill="#ffffff" stroke="#1f8f6f" stroke-width="2.5"/><rect x="422" y="92" width="78" height="28" rx="4" fill="#d3e9dd" stroke="#1f8f6f" stroke-width="2.5"/><rect x="506" y="92" width="78" height="28" rx="4" fill="#ffffff" stroke="#1f8f6f" stroke-width="2.5"/><rect x="-40" y="124" width="78" height="28" rx="4" fill="#ffffff" stroke="#1f8f6f" stroke-width="2.5"/><rect x="44" y="124" width="78" height="28" rx="4" fill="#ffffff" stroke="#1f8f6f" stroke-width="2.5"/><rect x="128" y="124" width="78" height="28" rx="4" fill="#d3e9dd" stroke="#1f8f6f" stroke-width="2.5"/><rect x="212" y="124" width="78" height="28" rx="4" fill="#ffffff" stroke="#1f8f6f" stroke-width="2.5"/><rect x="296" y="124" width="78" height="28" rx="4" fill="#ffffff" stroke="#1f8f6f" stroke-width="2.5"/><rect x="380" y="124" width="78" height="28" rx="4" fill="#d3e9dd" stroke="#1f8f6f" stroke-width="2.5"/><rect x="464" y="124" width="78" height="28" rx="4" fill="#ffffff" stroke="#1f8f6f" stroke-width="2.5"/><rect x="548" y="124" width="78" height="28" rx="4" fill="#ffffff" stroke="#1f8f6f" stroke-width="2.5"/><rect x="-82" y="156" width="78" height="28" rx="4" fill="#ffffff" stroke="#1f8f6f" stroke-width="2.5"/><rect x="2" y="156" width="78" height="28" rx="4" fill="#d3e9dd" stroke="#1f8f6f" stroke-width="2.5"/><rect x="86" y="156" width="78" height="28" rx="4" fill="#ffffff" stroke="#1f8f6f" stroke-width="2.5"/><rect x="170" y="156" width="78" height="28" rx="4" fill="#ffffff" stroke="#1f8f6f" stroke-width="2.5"/><rect x="254" y="156" width="78" height="28" rx="4" fill="#d3e9dd" stroke="#1f8f6f" stroke-width="2.5"/><rect x="338" y="156" width="78" height="28" rx="4" fill="#ffffff" stroke="#1f8f6f" stroke-width="2.5"/><rect x="422" y="156" width="78" height="28" rx="4" fill="#ffffff" stroke="#1f8f6f" stroke-width="2.5"/><rect x="506" y="156" width="78" height="28" rx="4" fill="#d3e9dd" stroke="#1f8f6f" stroke-width="2.5"/><rect x="-40" y="188" width="78" height="28" rx="4" fill="#d3e9dd" stroke="#1f8f6f" stroke-width="2.5"/><rect x="44" y="188" width="78" height="28" rx="4" fill="#ffffff" stroke="#1f8f6f" stroke-width="2.5"/><rect x="128" y="188" width="78" height="28" rx="4" fill="#ffffff" stroke="#1f8f6f" stroke-width="2.5"/><rect x="212" y="188" width="78" height="28" rx="4" fill="#d3e9dd" stroke="#1f8f6f" stroke-width="2.5"/><rect x="296" y="188" width="78" height="28" rx="4" fill="#ffffff" stroke="#1f8f6f" stroke-width="2.5"/><rect x="380" y="188" width="78" height="28" rx="4" fill="#ffffff" stroke="#1f8f6f" stroke-width="2.5"/><rect x="464" y="188" width="78" height="28" rx="4" fill="#d3e9dd" stroke="#1f8f6f" stroke-width="2.5"/><rect x="548" y="188" width="78" height="28" rx="4" fill="#ffffff" stroke="#1f8f6f" stroke-width="2.5"/><rect x="-82" y="220" width="78" height="28" rx="4" fill="#ffffff" stroke="#1f8f6f" stroke-width="2.5"/><rect x="2" y="220" width="78" height="28" rx="4" fill="#ffffff" stroke="#1f8f6f" stroke-width="2.5"/><rect x="86" y="220" width="78" height="28" rx="4" fill="#d3e9dd" stroke="#1f8f6f" stroke-width="2.5"/><rect x="170" y="220" width="78" height="28" rx="4" fill="#ffffff" stroke="#1f8f6f" stroke-width="2.5"/><rect x="254" y="220" width="78" height="28" rx="4" fill="#ffffff" stroke="#1f8f6f" stroke-width="2.5"/><rect x="338" y="220" width="78" height="28" rx="4" fill="#d3e9dd" stroke="#1f8f6f" stroke-width="2.5"/><rect x="422" y="220" width="78" height="28" rx="4" fill="#ffffff" stroke="#1f8f6f" stroke-width="2.5"/><rect x="506" y="220" width="78" height="28" rx="4" fill="#ffffff" stroke="#1f8f6f" stroke-width="2.5"/></g><rect x="42" y="58" width="396" height="188" rx="14" fill="none" stroke="#146b52" stroke-width="3"/></svg>