<svg xmlns="http://www.w3.org/2000/svg" viewBox="0 0 480 300" fill="none"><defs><linearGradient id="sky" x1="0" y1="0" x2="0" y2="1"><stop offset="0" stop-color="#e8f4ee"/><stop offset="1" stop-color="#ffffff"/></linearGradient></defs><rect width="480" height="300" fill="url(#sky)"/><rect x="0" y="210" width="480" height="90" fill="#d3e9dd"/><line x1="448" y1="56" x2="460" y2="56" stroke="#f4b740" stroke-width="5" stroke-linecap="round" opacity=".85"/><line x1="443" y1="75" x2="453" y2="81" stroke="#f4b740" stroke-width="5" stroke-linecap="round" opacity=".85"/><line x1="429" y1="89" x2="435" y2="99" stroke="#f4b740" stroke-width="5" stroke-linecap="round" opacity=".85"/><line x1="410" y1="94" x2="410" y2="106" stroke="#f4b740" stroke-width="5" stroke-linecap="round" opacity=".85"/><line x1="391" y1="89" x2="385" y2="99" stroke="#f4b740" stroke-width="5" stroke-linecap="round" opacity=".85"/><line x1="377" y1="75" x2="367" y2="81" stroke="#f4b740" stroke-width="5" stroke-linecap="round" opacity=".85"/><line x1="372" y1="56" x2="360" y2="56" stroke="#f4b740" stroke-width="5" stroke-linecap="round" opacity=".85"/><line x1="377" y1="37" x2="367" y2="31" stroke="#f4b740" stroke-width="5" stroke-linecap="round" opacity=".85"/><line x1="391" y1="23" x2="385" y2="13" stroke="#f4b740" stroke-width="5" stroke-linecap="round" opacity=".85"/><line x1="410" y1="18" x2="410" y2="6" stroke="#f4b740" stroke-width="5" stroke-linecap="round" opacity=".85"/><line x1="429" y1="23" x2="435" y2="13" stroke="#f4b740" stroke-width="5" stroke-linecap="round" opacity=".85"/><line x1="443" y1="37" x2="453" y2="31" stroke="#f4b740" stroke-width="5" stroke-linecap="round" opacity=".85"/><circle cx="410" cy="56" r="30" fill="#f4b740"/><g><rect x="40" y="150" width="76" height="38" rx="6" fill="#d3e9dd" stroke="#146b52" stroke-width="2"/><rect x="124" y="150" width="76" height="38" rx="6" fill="#d3e9dd" stroke="#146b52" stroke-width="2"/><rect x="208" y="150" width="76" height="38" rx="6" fill="#d3e9dd" stroke="#146b52" stroke-width="2"/><rect x="292" y="150" width="76" height="38" rx="6" fill="#d3e9dd" stroke="#146b52" stroke-width="2"/><rect x="376" y="150" width="76" height="38" rx="6" fill="#d3e9dd" stroke="#146b52" stroke-width="2"/><rect x="40" y="196" width="76" height="38" rx="6" fill="#d3e9dd" stroke="#146b52" stroke-width="2"/><rect x="124" y="196" width="76" height="38" rx="6" fill="#d3e9dd" stroke="#146b52" stroke-width="2"/><rect x="208" y="196" width="76" height="38" rx="6" fill="#d3e9dd" stroke="#146b52" stroke-width="2"/><rect x="292" y="196" width="76" height="38" rx="6" fill="#d3e9dd" stroke="#146b52" stroke-width="2"/><rect x="376" y="196" width="76" height="38" rx="6" fill="#d3e9dd" stroke="#146b52" stroke-width="2"/></g><line x1="82" y1="150" x2="82" y2="242" stroke="#1f8f6f" stroke-width="4" opacity=".8"/><line x1="166" y1="150" x2="166" y2="242" stroke="#1f8f6f" stroke-width="4" opacity=".8"/><line x1="250" y1="150" x2="250" y2="242" stroke="#1f8f6f" stroke-width="4" opacity=".8"/><line x1="334" y1="150" x2="334" y2="242" stroke="#1f8f6f" stroke-width="4" opacity=".8"/><path d="M120 60 q6 12 0 20 a10 10 0 1 1-0 -20z" fill="#cfe6f2"/><path d="M230 44 q6 12 0 20 a10 10 0 1 1-0 -20z" fill="#cfe6f2"/></svg>