<svg xmlns="http://www.w3.org/2000/svg" viewBox="0 0 400 400" fill="none"><defs><linearGradient id="sky" x1="0" y1="0" x2="0" y2="1"><stop offset="0" stop-color="#e8f4ee"/><stop offset="1" stop-color="#ffffff"/></linearGradient></defs><rect width="400" height="400" fill="url(#sky)"/><g transform="translate(0,150) scale(0.83333)"><line x1="448" y1="58" x2="460" y2="58" stroke="#f4b740" stroke-width="5" stroke-linecap="round" opacity=".85"/><line x1="443" y1="77" x2="453" y2="83" stroke="#f4b740" stroke-width="5" stroke-linecap="round" opacity=".85"/><line x1="429" y1="91" x2="435" y2="101" stroke="#f4b740" stroke-width="5" stroke-linecap="round" opacity=".85"/><line x1="410" y1="96" x2="410" y2="108" stroke="#f4b740" stroke-width="5" stroke-linecap="round" opacity=".85"/><line x1="391" y1="91" x2="385" y2="101" stroke="#f4b740" stroke-width="5" stroke-linecap="round" opacity=".85"/><line x1="377" y1="77" x2="367" y2="83" stroke="#f4b740" stroke-width="5" stroke-linecap="round" opacity=".85"/><line x1="372" y1="58" x2="360" y2="58" stroke="#f4b740" stroke-width="5" stroke-linecap="round" opacity=".85"/><line x1="377" y1="39" x2="367" y2="33" stroke="#f4b740" stroke-width="5" stroke-linecap="round" opacity=".85"/><line x1="391" y1="25" x2="385" y2="15" stroke="#f4b740" stroke-width="5" stroke-linecap="round" opacity=".85"/><line x1="410" y1="20" x2="410" y2="8" stroke="#f4b740" stroke-width="5" stroke-linecap="round" opacity=".85"/><line x1="429" y1="25" x2="435" y2="15" stroke="#f4b740" stroke-width="5" stroke-linecap="round" opacity=".85"/><line x1="443" y1="39" x2="453" y2="33" stroke="#f4b740" stroke-width="5" stroke-linecap="round" opacity=".85"/><circle cx="410" cy="58" r="30" fill="#f4b740"/><rect x="0" y="232" width="480" height="68" fill="#d3e9dd"/><rect x="183" y="206" width="10" height="26" rx="4" fill="#9c6b3f"/><circle cx="188" cy="192" r="29" fill="#1f8f6f"/><circle cx="167" cy="203" r="21" fill="#146b52"/><circle cx="209" cy="201" r="21" fill="#146b52"/><rect x="230" y="120" width="150" height="8" rx="3" fill="#146b52"/><line x1="240" y1="124" x2="240" y2="232" stroke="#146b52" stroke-width="7"/><line x1="370" y1="124" x2="370" y2="232" stroke="#146b52" stroke-width="7"/><line x1="245" y1="120" x2="245" y2="108" stroke="#1f8f6f" stroke-width="5"/><line x1="267" y1="120" x2="267" y2="108" stroke="#1f8f6f" stroke-width="5"/><line x1="289" y1="120" x2="289" y2="108" stroke="#1f8f6f" stroke-width="5"/><line x1="311" y1="120" x2="311" y2="108" stroke="#1f8f6f" stroke-width="5"/><line x1="333" y1="120" x2="333" y2="108" stroke="#1f8f6f" stroke-width="5"/><line x1="355" y1="120" x2="355" y2="108" stroke="#1f8f6f" stroke-width="5"/><rect x="255" y="195" width="90" height="12" rx="4" fill="#1f8f6f"/><rect x="262" y="207" width="8" height="25" fill="#146b52"/><rect x="330" y="207" width="8" height="25" fill="#146b52"/><circle cx="150" cy="248" r="10" fill="#cfe6f2"/></g></svg>