<svg xmlns="http://www.w3.org/2000/svg" viewBox="0 0 480 300" fill="none"><defs><linearGradient id="sky" x1="0" y1="0" x2="0" y2="1"><stop offset="0" stop-color="#e8f4ee"/><stop offset="1" stop-color="#ffffff"/></linearGradient></defs><rect width="480" height="300" fill="url(#sky)"/><rect x="0" y="205" width="480" height="95" fill="#d3e9dd"/><line x1="448" y1="56" x2="460" y2="56" stroke="#f4b740" stroke-width="5" stroke-linecap="round" opacity=".85"/><line x1="443" y1="75" x2="453" y2="81" stroke="#f4b740" stroke-width="5" stroke-linecap="round" opacity=".85"/><line x1="429" y1="89" x2="435" y2="99" stroke="#f4b740" stroke-width="5" stroke-linecap="round" opacity=".85"/><line x1="410" y1="94" x2="410" y2="106" stroke="#f4b740" stroke-width="5" stroke-linecap="round" opacity=".85"/><line x1="391" y1="89" x2="385" y2="99" stroke="#f4b740" stroke-width="5" stroke-linecap="round" opacity=".85"/><line x1="377" y1="75" x2="367" y2="81" stroke="#f4b740" stroke-width="5" stroke-linecap="round" opacity=".85"/><line x1="372" y1="56" x2="360" y2="56" stroke="#f4b740" stroke-width="5" stroke-linecap="round" opacity=".85"/><line x1="377" y1="37" x2="367" y2="31" stroke="#f4b740" stroke-width="5" stroke-linecap="round" opacity=".85"/><line x1="391" y1="23" x2="385" y2="13" stroke="#f4b740" stroke-width="5" stroke-linecap="round" opacity=".85"/><line x1="410" y1="18" x2="410" y2="6" stroke="#f4b740" stroke-width="5" stroke-linecap="round" opacity=".85"/><line x1="429" y1="23" x2="435" y2="13" stroke="#f4b740" stroke-width="5" stroke-linecap="round" opacity=".85"/><line x1="443" y1="37" x2="453" y2="31" stroke="#f4b740" stroke-width="5" stroke-linecap="round" opacity=".85"/><circle cx="410" cy="56" r="30" fill="#f4b740"/><path d="M40 205 Q240 300 440 205 L440 262 L40 262 Z" fill="#d3e9dd"/><path d="M120 232 Q240 285 360 232" fill="none" stroke="#cfe6f2" stroke-width="10" stroke-linecap="round"/><path d="M110 224 q6 -22 12 0" stroke="#1f8f6f" stroke-width="4" fill="none"/><path d="M148 224 q6 -22 12 0" stroke="#1f8f6f" stroke-width="4" fill="none"/><path d="M186 224 q6 -22 12 0" stroke="#1f8f6f" stroke-width="4" fill="none"/><path d="M224 224 q6 -22 12 0" stroke="#1f8f6f" stroke-width="4" fill="none"/><path d="M262 224 q6 -22 12 0" stroke="#1f8f6f" stroke-width="4" fill="none"/><path d="M300 224 q6 -22 12 0" stroke="#1f8f6f" stroke-width="4" fill="none"/><path d="M338 224 q6 -22 12 0" stroke="#1f8f6f" stroke-width="4" fill="none"/><path d="M150 70 q6 12 0 20 a10 10 0 1 1 0 -20z" fill="#cfe6f2"/><path d="M250 54 q6 12 0 20 a10 10 0 1 1 0 -20z" fill="#cfe6f2"/><path d="M330 74 q6 12 0 20 a10 10 0 1 1 0 -20z" fill="#cfe6f2"/></svg>