<svg xmlns="http://www.w3.org/2000/svg" viewBox="0 0 400 400" fill="none"><defs><linearGradient id="sky" x1="0" y1="0" x2="0" y2="1"><stop offset="0" stop-color="#e8f4ee"/><stop offset="1" stop-color="#ffffff"/></linearGradient></defs><rect width="400" height="400" fill="url(#sky)"/><g transform="translate(0,150) scale(0.83333)"><rect x="0" y="232" width="480" height="68" fill="#d3e9dd"/><line x1="98" y1="56" x2="110" y2="56" stroke="#f4b740" stroke-width="5" stroke-linecap="round" opacity=".85"/><line x1="93" y1="75" x2="103" y2="81" stroke="#f4b740" stroke-width="5" stroke-linecap="round" opacity=".85"/><line x1="79" y1="89" x2="85" y2="99" stroke="#f4b740" stroke-width="5" stroke-linecap="round" opacity=".85"/><line x1="60" y1="94" x2="60" y2="106" stroke="#f4b740" stroke-width="5" stroke-linecap="round" opacity=".85"/><line x1="41" y1="89" x2="35" y2="99" stroke="#f4b740" stroke-width="5" stroke-linecap="round" opacity=".85"/><line x1="27" y1="75" x2="17" y2="81" stroke="#f4b740" stroke-width="5" stroke-linecap="round" opacity=".85"/><line x1="22" y1="56" x2="10" y2="56" stroke="#f4b740" stroke-width="5" stroke-linecap="round" opacity=".85"/><line x1="27" y1="37" x2="17" y2="31" stroke="#f4b740" stroke-width="5" stroke-linecap="round" opacity=".85"/><line x1="41" y1="23" x2="35" y2="13" stroke="#f4b740" stroke-width="5" stroke-linecap="round" opacity=".85"/><line x1="60" y1="18" x2="60" y2="6" stroke="#f4b740" stroke-width="5" stroke-linecap="round" opacity=".85"/><line x1="79" y1="23" x2="85" y2="13" stroke="#f4b740" stroke-width="5" stroke-linecap="round" opacity=".85"/><line x1="93" y1="37" x2="103" y2="31" stroke="#f4b740" stroke-width="5" stroke-linecap="round" opacity=".85"/><circle cx="60" cy="56" r="30" fill="#f4b740"/><rect x="120" y="120" width="244" height="9" rx="4" fill="#146b52"/><rect x="122" y="100" width="8" height="22" fill="#146b52"/><rect x="354" y="100" width="8" height="22" fill="#146b52"/><circle cx="150" cy="131" r="4" fill="#146b52"/><circle cx="200" cy="131" r="4" fill="#146b52"/><circle cx="250" cy="131" r="4" fill="#146b52"/><circle cx="300" cy="131" r="4" fill="#146b52"/><circle cx="350" cy="131" r="4" fill="#146b52"/><path d="M150 135 l-15 58 q15 8 30 0 z" fill="#cfe6f2" opacity=".28"/><path d="M200 135 l-15 58 q15 8 30 0 z" fill="#cfe6f2" opacity=".28"/><path d="M250 135 l-15 58 q15 8 30 0 z" fill="#cfe6f2" opacity=".28"/><path d="M300 135 l-15 58 q15 8 30 0 z" fill="#cfe6f2" opacity=".28"/><path d="M350 135 l-15 58 q15 8 30 0 z" fill="#cfe6f2" opacity=".28"/><circle cx="138" cy="150" r="2" fill="#cfe6f2"/><circle cx="160" cy="167" r="2" fill="#cfe6f2"/><circle cx="182" cy="184" r="2" fill="#cfe6f2"/><circle cx="204" cy="201" r="2" fill="#cfe6f2"/><circle cx="226" cy="162" r="2" fill="#cfe6f2"/><circle cx="248" cy="179" r="2" fill="#cfe6f2"/><circle cx="270" cy="196" r="2" fill="#cfe6f2"/><circle cx="292" cy="157" r="2" fill="#cfe6f2"/><circle cx="314" cy="174" r="2" fill="#cfe6f2"/><circle cx="336" cy="191" r="2" fill="#cfe6f2"/><circle cx="358" cy="152" r="2" fill="#cfe6f2"/><circle cx="380" cy="169" r="2" fill="#cfe6f2"/><circle cx="402" cy="186" r="2" fill="#cfe6f2"/><circle cx="424" cy="203" r="2" fill="#cfe6f2"/><circle cx="446" cy="164" r="2" fill="#cfe6f2"/></g></svg>