<svg xmlns="http://www.w3.org/2000/svg" viewBox="0 0 480 300" fill="none"><defs><linearGradient id="sky" x1="0" y1="0" x2="0" y2="1"><stop offset="0" stop-color="#e8f4ee"/><stop offset="1" stop-color="#ffffff"/></linearGradient></defs><rect width="480" height="300" fill="url(#sky)"/><rect x="0" y="232" width="480" height="68" fill="#d3e9dd"/><line x1="448" y1="56" x2="460" y2="56" stroke="#f4b740" stroke-width="5" stroke-linecap="round" opacity=".85"/><line x1="443" y1="75" x2="453" y2="81" stroke="#f4b740" stroke-width="5" stroke-linecap="round" opacity=".85"/><line x1="429" y1="89" x2="435" y2="99" stroke="#f4b740" stroke-width="5" stroke-linecap="round" opacity=".85"/><line x1="410" y1="94" x2="410" y2="106" stroke="#f4b740" stroke-width="5" stroke-linecap="round" opacity=".85"/><line x1="391" y1="89" x2="385" y2="99" stroke="#f4b740" stroke-width="5" stroke-linecap="round" opacity=".85"/><line x1="377" y1="75" x2="367" y2="81" stroke="#f4b740" stroke-width="5" stroke-linecap="round" opacity=".85"/><line x1="372" y1="56" x2="360" y2="56" stroke="#f4b740" stroke-width="5" stroke-linecap="round" opacity=".85"/><line x1="377" y1="37" x2="367" y2="31" stroke="#f4b740" stroke-width="5" stroke-linecap="round" opacity=".85"/><line x1="391" y1="23" x2="385" y2="13" stroke="#f4b740" stroke-width="5" stroke-linecap="round" opacity=".85"/><line x1="410" y1="18" x2="410" y2="6" stroke="#f4b740" stroke-width="5" stroke-linecap="round" opacity=".85"/><line x1="429" y1="23" x2="435" y2="13" stroke="#f4b740" stroke-width="5" stroke-linecap="round" opacity=".85"/><line x1="443" y1="37" x2="453" y2="31" stroke="#f4b740" stroke-width="5" stroke-linecap="round" opacity=".85"/><circle cx="410" cy="56" r="30" fill="#f4b740"/><rect x="150" y="96" width="150" height="136" rx="16" fill="#ffffff" stroke="#146b52" stroke-width="3"/><path d="M156 150 h138 v72 a10 10 0 0 1 -10 10 h-118 a10 10 0 0 1 -10 -10 z" fill="#cfe6f2"/><path d="M156 150 q34 -12 69 0 t69 0" fill="none" stroke="#ffffff" stroke-width="3" opacity=".7"/><line x1="160" y1="170" x2="172" y2="170" stroke="#146b52" stroke-width="2" opacity=".5"/><line x1="160" y1="188" x2="172" y2="188" stroke="#146b52" stroke-width="2" opacity=".5"/><line x1="160" y1="206" x2="172" y2="206" stroke="#146b52" stroke-width="2" opacity=".5"/><path d="M120 70 h70 v10 h-60 v20" fill="none" stroke="#146b52" stroke-width="4" stroke-linecap="round"/><path d="M130 104 q6 12 0 20 a10 10 0 1 1 0 -20z" fill="#cfe6f2"/><rect x="300" y="196" width="26" height="9" rx="3" fill="#146b52"/><rect x="322" y="196" width="9" height="20" rx="3" fill="#146b52"/><path d="M326 216 q-6 10 0 18 q6 -8 0 -18z" fill="#cfe6f2"/><ellipse cx="326" cy="238" rx="16" ry="4" fill="#cfe6f2"/></svg>