<svg xmlns="http://www.w3.org/2000/svg" viewBox="0 0 480 300" fill="none"><defs><linearGradient id="sky" x1="0" y1="0" x2="0" y2="1"><stop offset="0" stop-color="#e8f4ee"/><stop offset="1" stop-color="#ffffff"/></linearGradient></defs><rect width="480" height="300" fill="url(#sky)"/><rect x="40" y="150" width="400" height="96" rx="10" fill="#d3e9dd"/><rect x="48" y="162" width="72" height="32" rx="5" fill="#ffffff" stroke="#146b52" stroke-width="2"/><rect x="128" y="162" width="72" height="32" rx="5" fill="#ffffff" stroke="#146b52" stroke-width="2"/><rect x="208" y="162" width="72" height="32" rx="5" fill="#ffffff" stroke="#146b52" stroke-width="2"/><rect x="288" y="162" width="72" height="32" rx="5" fill="#ffffff" stroke="#146b52" stroke-width="2"/><rect x="368" y="162" width="72" height="32" rx="5" fill="#ffffff" stroke="#146b52" stroke-width="2"/><rect x="48" y="202" width="72" height="32" rx="5" fill="#ffffff" stroke="#146b52" stroke-width="2"/><rect x="128" y="202" width="72" height="32" rx="5" fill="#ffffff" stroke="#146b52" stroke-width="2"/><rect x="208" y="202" width="72" height="32" rx="5" fill="#ffffff" stroke="#146b52" stroke-width="2"/><rect x="288" y="202" width="72" height="32" rx="5" fill="#ffffff" stroke="#146b52" stroke-width="2"/><rect x="368" y="202" width="72" height="32" rx="5" fill="#ffffff" stroke="#146b52" stroke-width="2"/><rect x="120" y="150" width="8" height="96" fill="#1f8f6f" opacity=".85"/><rect x="200" y="150" width="8" height="96" fill="#1f8f6f" opacity=".85"/><rect x="280" y="150" width="8" height="96" fill="#1f8f6f" opacity=".85"/><rect x="360" y="150" width="8" height="96" fill="#1f8f6f" opacity=".85"/><path d="M124 200 v30" stroke="#cfe6f2" stroke-width="4" stroke-linecap="round"/><path d="M118 224 l6 8 l6 -8" fill="none" stroke="#cfe6f2" stroke-width="4" stroke-linecap="round" stroke-linejoin="round"/><path d="M204 200 v30" stroke="#cfe6f2" stroke-width="4" stroke-linecap="round"/><path d="M198 224 l6 8 l6 -8" fill="none" stroke="#cfe6f2" stroke-width="4" stroke-linecap="round" stroke-linejoin="round"/><path d="M284 200 v30" stroke="#cfe6f2" stroke-width="4" stroke-linecap="round"/><path d="M278 224 l6 8 l6 -8" fill="none" stroke="#cfe6f2" stroke-width="4" stroke-linecap="round" stroke-linejoin="round"/><path d="M364 200 v30" stroke="#cfe6f2" stroke-width="4" stroke-linecap="round"/><path d="M358 224 l6 8 l6 -8" fill="none" stroke="#cfe6f2" stroke-width="4" stroke-linecap="round" stroke-linejoin="round"/><path d="M80 44 q11 20 0 34 a17 17 0 1 1 0 -34z" fill="#cfe6f2" stroke="#1f8f6f" stroke-width="2"/><circle cx="80" cy="66" r="4" fill="#ffffff" opacity=".7"/><path d="M140 72 q11 20 0 34 a17 17 0 1 1 0 -34z" fill="#cfe6f2" stroke="#1f8f6f" stroke-width="2"/><circle cx="140" cy="94" r="4" fill="#ffffff" opacity=".7"/><path d="M200 44 q11 20 0 34 a17 17 0 1 1 0 -34z" fill="#cfe6f2" stroke="#1f8f6f" stroke-width="2"/><circle cx="200" cy="66" r="4" fill="#ffffff" opacity=".7"/><path d="M260 72 q11 20 0 34 a17 17 0 1 1 0 -34z" fill="#cfe6f2" stroke="#1f8f6f" stroke-width="2"/><circle cx="260" cy="94" r="4" fill="#ffffff" opacity=".7"/><path d="M320 44 q11 20 0 34 a17 17 0 1 1 0 -34z" fill="#cfe6f2" stroke="#1f8f6f" stroke-width="2"/><circle cx="320" cy="66" r="4" fill="#ffffff" opacity=".7"/><path d="M380 72 q11 20 0 34 a17 17 0 1 1 0 -34z" fill="#cfe6f2" stroke="#1f8f6f" stroke-width="2"/><circle cx="380" cy="94" r="4" fill="#ffffff" opacity=".7"/></svg>