<svg xmlns="http://www.w3.org/2000/svg" viewBox="0 0 480 300" fill="none"><defs><linearGradient id="sky" x1="0" y1="0" x2="0" y2="1"><stop offset="0" stop-color="#e8f4ee"/><stop offset="1" stop-color="#ffffff"/></linearGradient></defs><rect width="480" height="300" fill="url(#sky)"/><rect x="0" y="232" width="480" height="68" fill="#d3e9dd"/><rect x="180" y="150" width="120" height="82" rx="10" fill="#1f8f6f"/><rect x="192" y="162" width="96" height="30" rx="6" fill="#cfe6f2"/><rect x="234" y="90" width="12" height="70" rx="6" fill="#146b52"/><circle cx="240" cy="86" r="12" fill="#146b52"/><path d="M240 100 q-16 22 0 44 q16 -22 0 -44z" fill="#cfe6f2"/><path d="M150 120 q6 12 0 20 a10 10 0 1 1 0 -20z" fill="#cfe6f2"/><path d="M330 130 q6 12 0 20 a10 10 0 1 1 0 -20z" fill="#cfe6f2"/></svg>