<svg xmlns="http://www.w3.org/2000/svg" viewBox="0 0 480 300" fill="none"><defs><linearGradient id="sky" x1="0" y1="0" x2="0" y2="1"><stop offset="0" stop-color="#e7f0fa"/><stop offset="1" stop-color="#ffffff"/></linearGradient></defs><rect width="480" height="300" fill="url(#sky)"/><line x1="448" y1="58" x2="460" y2="58" stroke="#f4b740" stroke-width="5" stroke-linecap="round" opacity=".85"/><line x1="443" y1="77" x2="453" y2="83" stroke="#f4b740" stroke-width="5" stroke-linecap="round" opacity=".85"/><line x1="429" y1="91" x2="435" y2="101" stroke="#f4b740" stroke-width="5" stroke-linecap="round" opacity=".85"/><line x1="410" y1="96" x2="410" y2="108" stroke="#f4b740" stroke-width="5" stroke-linecap="round" opacity=".85"/><line x1="391" y1="91" x2="385" y2="101" stroke="#f4b740" stroke-width="5" stroke-linecap="round" opacity=".85"/><line x1="377" y1="77" x2="367" y2="83" stroke="#f4b740" stroke-width="5" stroke-linecap="round" opacity=".85"/><line x1="372" y1="58" x2="360" y2="58" stroke="#f4b740" stroke-width="5" stroke-linecap="round" opacity=".85"/><line x1="377" y1="39" x2="367" y2="33" stroke="#f4b740" stroke-width="5" stroke-linecap="round" opacity=".85"/><line x1="391" y1="25" x2="385" y2="15" stroke="#f4b740" stroke-width="5" stroke-linecap="round" opacity=".85"/><line x1="410" y1="20" x2="410" y2="8" stroke="#f4b740" stroke-width="5" stroke-linecap="round" opacity=".85"/><line x1="429" y1="25" x2="435" y2="15" stroke="#f4b740" stroke-width="5" stroke-linecap="round" opacity=".85"/><line x1="443" y1="39" x2="453" y2="33" stroke="#f4b740" stroke-width="5" stroke-linecap="round" opacity=".85"/><circle cx="410" cy="58" r="30" fill="#f4b740"/><rect x="0" y="232" width="480" height="68" fill="#d3e3f4"/><rect x="150" y="80" width="180" height="150" rx="8" fill="#ffffff" stroke="#1f5290" stroke-width="4"/><rect x="165" y="120" width="150" height="105" fill="#cfe6f2"/><line x1="240" y1="120" x2="240" y2="225" stroke="#ffffff" stroke-width="4"/><line x1="165" y1="172" x2="315" y2="172" stroke="#ffffff" stroke-width="4"/><rect x="150" y="92" width="180" height="7" rx="3" fill="#2b6cb0" opacity=".9"/><rect x="150" y="106" width="180" height="7" rx="3" fill="#2b6cb0" opacity=".9"/><rect x="150" y="120" width="180" height="7" rx="3" fill="#2b6cb0" opacity=".9"/><rect x="150" y="134" width="180" height="7" rx="3" fill="#2b6cb0" opacity=".9"/></svg>