<svg xmlns="http://www.w3.org/2000/svg" viewBox="0 0 400 400" fill="none"><defs><linearGradient id="sky" x1="0" y1="0" x2="0" y2="1"><stop offset="0" stop-color="#e7f0fa"/><stop offset="1" stop-color="#ffffff"/></linearGradient></defs><rect width="400" height="400" fill="url(#sky)"/><g transform="translate(0,150) scale(0.83333)"><rect x="0" y="232" width="480" height="68" fill="#d3e3f4"/><line x1="448" y1="56" x2="460" y2="56" stroke="#f4b740" stroke-width="5" stroke-linecap="round" opacity=".85"/><line x1="443" y1="75" x2="453" y2="81" stroke="#f4b740" stroke-width="5" stroke-linecap="round" opacity=".85"/><line x1="429" y1="89" x2="435" y2="99" stroke="#f4b740" stroke-width="5" stroke-linecap="round" opacity=".85"/><line x1="410" y1="94" x2="410" y2="106" stroke="#f4b740" stroke-width="5" stroke-linecap="round" opacity=".85"/><line x1="391" y1="89" x2="385" y2="99" stroke="#f4b740" stroke-width="5" stroke-linecap="round" opacity=".85"/><line x1="377" y1="75" x2="367" y2="81" stroke="#f4b740" stroke-width="5" stroke-linecap="round" opacity=".85"/><line x1="372" y1="56" x2="360" y2="56" stroke="#f4b740" stroke-width="5" stroke-linecap="round" opacity=".85"/><line x1="377" y1="37" x2="367" y2="31" stroke="#f4b740" stroke-width="5" stroke-linecap="round" opacity=".85"/><line x1="391" y1="23" x2="385" y2="13" stroke="#f4b740" stroke-width="5" stroke-linecap="round" opacity=".85"/><line x1="410" y1="18" x2="410" y2="6" stroke="#f4b740" stroke-width="5" stroke-linecap="round" opacity=".85"/><line x1="429" y1="23" x2="435" y2="13" stroke="#f4b740" stroke-width="5" stroke-linecap="round" opacity=".85"/><line x1="443" y1="37" x2="453" y2="31" stroke="#f4b740" stroke-width="5" stroke-linecap="round" opacity=".85"/><circle cx="410" cy="56" r="30" fill="#f4b740"/><rect x="150" y="80" width="180" height="152" fill="#ffffff" stroke="#1f5290" stroke-width="3"/><line x1="164" y1="84" x2="164" y2="230" stroke="#1f5290" stroke-width="1.5" opacity=".3"/><line x1="188" y1="84" x2="188" y2="230" stroke="#1f5290" stroke-width="1.5" opacity=".3"/><line x1="212" y1="84" x2="212" y2="230" stroke="#1f5290" stroke-width="1.5" opacity=".3"/><line x1="236" y1="84" x2="236" y2="230" stroke="#1f5290" stroke-width="1.5" opacity=".3"/><line x1="260" y1="84" x2="260" y2="230" stroke="#1f5290" stroke-width="1.5" opacity=".3"/><line x1="284" y1="84" x2="284" y2="230" stroke="#1f5290" stroke-width="1.5" opacity=".3"/><line x1="308" y1="84" x2="308" y2="230" stroke="#1f5290" stroke-width="1.5" opacity=".3"/><line x1="332" y1="84" x2="332" y2="230" stroke="#1f5290" stroke-width="1.5" opacity=".3"/><rect x="246" y="120" width="60" height="72" fill="#cfe6f2" stroke="#1f5290" stroke-width="2"/><circle cx="160" cy="226" r="11" fill="#3a9e73"/><circle cx="185" cy="226" r="13" fill="#3a9e73"/><circle cx="210" cy="226" r="15" fill="#3a9e73"/><circle cx="235" cy="226" r="11" fill="#3a9e73"/><circle cx="260" cy="226" r="13" fill="#3a9e73"/><circle cx="285" cy="226" r="15" fill="#3a9e73"/><circle cx="310" cy="226" r="11" fill="#3a9e73"/><circle cx="160" cy="196" r="13" fill="#3a9e73"/><circle cx="185" cy="196" r="15" fill="#3a9e73"/><circle cx="210" cy="196" r="11" fill="#3a9e73"/><circle cx="235" cy="196" r="13" fill="#3a9e73"/><circle cx="260" cy="196" r="15" fill="#3a9e73"/><circle cx="285" cy="196" r="11" fill="#3a9e73"/><circle cx="310" cy="196" r="13" fill="#3a9e73"/><circle cx="160" cy="166" r="15" fill="#3a9e73"/><circle cx="185" cy="166" r="11" fill="#3a9e73"/><circle cx="210" cy="166" r="13" fill="#3a9e73"/><circle cx="235" cy="166" r="15" fill="#3a9e73"/><circle cx="260" cy="166" r="11" fill="#3a9e73"/><circle cx="285" cy="166" r="13" fill="#3a9e73"/><circle cx="310" cy="166" r="15" fill="#3a9e73"/><circle cx="172" cy="216" r="7" fill="#2b7d5a"/><circle cx="197" cy="216" r="7" fill="#2b7d5a"/><circle cx="222" cy="216" r="7" fill="#2b7d5a"/><circle cx="247" cy="216" r="7" fill="#2b7d5a"/><circle cx="272" cy="216" r="7" fill="#2b7d5a"/><circle cx="297" cy="216" r="7" fill="#2b7d5a"/><circle cx="172" cy="186" r="7" fill="#2b7d5a"/><circle cx="197" cy="186" r="7" fill="#2b7d5a"/><circle cx="222" cy="186" r="7" fill="#2b7d5a"/><circle cx="247" cy="186" r="7" fill="#2b7d5a"/><circle cx="272" cy="186" r="7" fill="#2b7d5a"/><circle cx="297" cy="186" r="7" fill="#2b7d5a"/></g></svg>