<svg xmlns="http://www.w3.org/2000/svg" viewBox="0 0 400 400" fill="none"><defs><linearGradient id="sky" x1="0" y1="0" x2="0" y2="1"><stop offset="0" stop-color="#e7f0fa"/><stop offset="1" stop-color="#ffffff"/></linearGradient></defs><rect width="400" height="400" fill="url(#sky)"/><g transform="translate(0,150) scale(0.83333)"><line x1="98" y1="58" x2="110" y2="58" stroke="#f4b740" stroke-width="5" stroke-linecap="round" opacity=".85"/><line x1="93" y1="77" x2="103" y2="83" stroke="#f4b740" stroke-width="5" stroke-linecap="round" opacity=".85"/><line x1="79" y1="91" x2="85" y2="101" stroke="#f4b740" stroke-width="5" stroke-linecap="round" opacity=".85"/><line x1="60" y1="96" x2="60" y2="108" stroke="#f4b740" stroke-width="5" stroke-linecap="round" opacity=".85"/><line x1="41" y1="91" x2="35" y2="101" stroke="#f4b740" stroke-width="5" stroke-linecap="round" opacity=".85"/><line x1="27" y1="77" x2="17" y2="83" stroke="#f4b740" stroke-width="5" stroke-linecap="round" opacity=".85"/><line x1="22" y1="58" x2="10" y2="58" stroke="#f4b740" stroke-width="5" stroke-linecap="round" opacity=".85"/><line x1="27" y1="39" x2="17" y2="33" stroke="#f4b740" stroke-width="5" stroke-linecap="round" opacity=".85"/><line x1="41" y1="25" x2="35" y2="15" stroke="#f4b740" stroke-width="5" stroke-linecap="round" opacity=".85"/><line x1="60" y1="20" x2="60" y2="8" stroke="#f4b740" stroke-width="5" stroke-linecap="round" opacity=".85"/><line x1="79" y1="25" x2="85" y2="15" stroke="#f4b740" stroke-width="5" stroke-linecap="round" opacity=".85"/><line x1="93" y1="39" x2="103" y2="33" stroke="#f4b740" stroke-width="5" stroke-linecap="round" opacity=".85"/><circle cx="60" cy="58" r="30" fill="#f4b740"/><rect x="0" y="232" width="480" height="68" fill="#d3e3f4"/><rect x="150" y="80" width="180" height="150" rx="8" fill="#ffffff" stroke="#1f5290" stroke-width="4"/><rect x="165" y="95" width="150" height="130" fill="#cfe6f2"/><rect x="165" y="95" width="150" height="60" fill="#2b6cb0" opacity=".85"/><line x1="165" y1="110" x2="315" y2="110" stroke="#1f5290" stroke-width="2" opacity=".5"/><line x1="165" y1="124" x2="315" y2="124" stroke="#1f5290" stroke-width="2" opacity=".5"/><line x1="165" y1="138" x2="315" y2="138" stroke="#1f5290" stroke-width="2" opacity=".5"/><rect x="232" y="95" width="16" height="12" fill="#1f5290"/></g></svg>