<svg xmlns="http://www.w3.org/2000/svg" viewBox="0 0 480 300" fill="none"><defs><linearGradient id="sky" x1="0" y1="0" x2="0" y2="1"><stop offset="0" stop-color="#e7f0fa"/><stop offset="1" stop-color="#ffffff"/></linearGradient></defs><rect width="480" height="300" fill="url(#sky)"/><line x1="448" y1="58" x2="460" y2="58" stroke="#f4b740" stroke-width="5" stroke-linecap="round" opacity=".85"/><line x1="443" y1="77" x2="453" y2="83" stroke="#f4b740" stroke-width="5" stroke-linecap="round" opacity=".85"/><line x1="429" y1="91" x2="435" y2="101" stroke="#f4b740" stroke-width="5" stroke-linecap="round" opacity=".85"/><line x1="410" y1="96" x2="410" y2="108" stroke="#f4b740" stroke-width="5" stroke-linecap="round" opacity=".85"/><line x1="391" y1="91" x2="385" y2="101" stroke="#f4b740" stroke-width="5" stroke-linecap="round" opacity=".85"/><line x1="377" y1="77" x2="367" y2="83" stroke="#f4b740" stroke-width="5" stroke-linecap="round" opacity=".85"/><line x1="372" y1="58" x2="360" y2="58" stroke="#f4b740" stroke-width="5" stroke-linecap="round" opacity=".85"/><line x1="377" y1="39" x2="367" y2="33" stroke="#f4b740" stroke-width="5" stroke-linecap="round" opacity=".85"/><line x1="391" y1="25" x2="385" y2="15" stroke="#f4b740" stroke-width="5" stroke-linecap="round" opacity=".85"/><line x1="410" y1="20" x2="410" y2="8" stroke="#f4b740" stroke-width="5" stroke-linecap="round" opacity=".85"/><line x1="429" y1="25" x2="435" y2="15" stroke="#f4b740" stroke-width="5" stroke-linecap="round" opacity=".85"/><line x1="443" y1="39" x2="453" y2="33" stroke="#f4b740" stroke-width="5" stroke-linecap="round" opacity=".85"/><circle cx="410" cy="58" r="30" fill="#f4b740"/><rect x="120" y="150" width="240" height="120" rx="6" fill="#ffffff" stroke="#1f5290" stroke-width="3"/><rect x="110" y="120" width="260" height="34" rx="8" fill="#d3e3f4" stroke="#1f5290" stroke-width="3"/><circle cx="130" cy="128" r="10" fill="#2b6cb0"/><circle cx="160" cy="128" r="10" fill="#2b6cb0"/><circle cx="190" cy="128" r="10" fill="#2b6cb0"/><circle cx="220" cy="128" r="10" fill="#2b6cb0"/><circle cx="250" cy="128" r="10" fill="#2b6cb0"/><circle cx="280" cy="128" r="10" fill="#2b6cb0"/><circle cx="310" cy="128" r="10" fill="#2b6cb0"/><circle cx="340" cy="128" r="10" fill="#2b6cb0"/><circle cx="370" cy="128" r="10" fill="#2b6cb0"/><circle cx="145" cy="132" r="8" fill="#1f5290"/><circle cx="175" cy="132" r="8" fill="#1f5290"/><circle cx="205" cy="132" r="8" fill="#1f5290"/><circle cx="235" cy="132" r="8" fill="#1f5290"/><circle cx="265" cy="132" r="8" fill="#1f5290"/><circle cx="295" cy="132" r="8" fill="#1f5290"/><circle cx="325" cy="132" r="8" fill="#1f5290"/><circle cx="355" cy="132" r="8" fill="#1f5290"/><rect x="150" y="185" width="34" height="34" rx="4" fill="#cfe6f2"/><rect x="210" y="185" width="34" height="34" rx="4" fill="#cfe6f2"/><rect x="270" y="185" width="34" height="34" rx="4" fill="#cfe6f2"/></svg>