<svg xmlns="http://www.w3.org/2000/svg" viewBox="0 0 480 300" fill="none"><defs><linearGradient id="sky" x1="0" y1="0" x2="0" y2="1"><stop offset="0" stop-color="#e7f0fa"/><stop offset="1" stop-color="#ffffff"/></linearGradient></defs><rect width="480" height="300" fill="url(#sky)"/><line x1="278" y1="66" x2="290" y2="66" stroke="#f4b740" stroke-width="5" stroke-linecap="round" opacity=".85"/><line x1="273" y1="85" x2="283" y2="91" stroke="#f4b740" stroke-width="5" stroke-linecap="round" opacity=".85"/><line x1="259" y1="99" x2="265" y2="109" stroke="#f4b740" stroke-width="5" stroke-linecap="round" opacity=".85"/><line x1="240" y1="104" x2="240" y2="116" stroke="#f4b740" stroke-width="5" stroke-linecap="round" opacity=".85"/><line x1="221" y1="99" x2="215" y2="109" stroke="#f4b740" stroke-width="5" stroke-linecap="round" opacity=".85"/><line x1="207" y1="85" x2="197" y2="91" stroke="#f4b740" stroke-width="5" stroke-linecap="round" opacity=".85"/><line x1="202" y1="66" x2="190" y2="66" stroke="#f4b740" stroke-width="5" stroke-linecap="round" opacity=".85"/><line x1="207" y1="47" x2="197" y2="41" stroke="#f4b740" stroke-width="5" stroke-linecap="round" opacity=".85"/><line x1="221" y1="33" x2="215" y2="23" stroke="#f4b740" stroke-width="5" stroke-linecap="round" opacity=".85"/><line x1="240" y1="28" x2="240" y2="16" stroke="#f4b740" stroke-width="5" stroke-linecap="round" opacity=".85"/><line x1="259" y1="33" x2="265" y2="23" stroke="#f4b740" stroke-width="5" stroke-linecap="round" opacity=".85"/><line x1="273" y1="47" x2="283" y2="41" stroke="#f4b740" stroke-width="5" stroke-linecap="round" opacity=".85"/><circle cx="240" cy="66" r="30" fill="#f4b740"/><rect x="120" y="150" width="240" height="120" rx="6" fill="#ffffff" stroke="#1f5290" stroke-width="3"/><rect x="110" y="132" width="260" height="22" rx="6" fill="#f4f7fb" stroke="#1f5290" stroke-width="3"/><line x1="240" y1="96" x2="180" y2="132" stroke="#f4b740" stroke-width="5" stroke-linecap="round"/><line x1="240" y1="96" x2="300" y2="132" stroke="#f4b740" stroke-width="5" stroke-linecap="round"/><rect x="150" y="185" width="34" height="34" rx="4" fill="#cfe6f2"/><rect x="210" y="185" width="34" height="34" rx="4" fill="#cfe6f2"/><rect x="270" y="185" width="34" height="34" rx="4" fill="#cfe6f2"/></svg>