<svg xmlns="http://www.w3.org/2000/svg" viewBox="0 0 400 400" fill="none"><defs><linearGradient id="sky" x1="0" y1="0" x2="0" y2="1"><stop offset="0" stop-color="#e7f0fa"/><stop offset="1" stop-color="#ffffff"/></linearGradient></defs><rect width="400" height="400" fill="url(#sky)"/><g transform="translate(0,150) scale(0.83333)"><rect x="0" y="232" width="480" height="68" fill="#d3e3f4"/><line x1="96" y1="60" x2="108" y2="60" stroke="#f4b740" stroke-width="5" stroke-linecap="round" opacity=".85"/><line x1="91" y1="79" x2="101" y2="85" stroke="#f4b740" stroke-width="5" stroke-linecap="round" opacity=".85"/><line x1="77" y1="93" x2="83" y2="103" stroke="#f4b740" stroke-width="5" stroke-linecap="round" opacity=".85"/><line x1="58" y1="98" x2="58" y2="110" stroke="#f4b740" stroke-width="5" stroke-linecap="round" opacity=".85"/><line x1="39" y1="93" x2="33" y2="103" stroke="#f4b740" stroke-width="5" stroke-linecap="round" opacity=".85"/><line x1="25" y1="79" x2="15" y2="85" stroke="#f4b740" stroke-width="5" stroke-linecap="round" opacity=".85"/><line x1="20" y1="60" x2="8" y2="60" stroke="#f4b740" stroke-width="5" stroke-linecap="round" opacity=".85"/><line x1="25" y1="41" x2="15" y2="35" stroke="#f4b740" stroke-width="5" stroke-linecap="round" opacity=".85"/><line x1="39" y1="27" x2="33" y2="17" stroke="#f4b740" stroke-width="5" stroke-linecap="round" opacity=".85"/><line x1="58" y1="22" x2="58" y2="10" stroke="#f4b740" stroke-width="5" stroke-linecap="round" opacity=".85"/><line x1="77" y1="27" x2="83" y2="17" stroke="#f4b740" stroke-width="5" stroke-linecap="round" opacity=".85"/><line x1="91" y1="41" x2="101" y2="35" stroke="#f4b740" stroke-width="5" stroke-linecap="round" opacity=".85"/><circle cx="58" cy="60" r="30" fill="#f4b740"/><path d="M40 96 h96" stroke="#f4b740" stroke-width="4" stroke-linecap="round" opacity=".85"/><path d="M128 90 l10 6 l-10 6" fill="none" stroke="#f4b740" stroke-width="4" stroke-linecap="round" stroke-linejoin="round"/><path d="M40 130 h96" stroke="#f4b740" stroke-width="4" stroke-linecap="round" opacity=".85"/><path d="M128 124 l10 6 l-10 6" fill="none" stroke="#f4b740" stroke-width="4" stroke-linecap="round" stroke-linejoin="round"/><path d="M40 164 h96" stroke="#f4b740" stroke-width="4" stroke-linecap="round" opacity=".85"/><path d="M128 158 l10 6 l-10 6" fill="none" stroke="#f4b740" stroke-width="4" stroke-linecap="round" stroke-linejoin="round"/><rect x="150" y="72" width="30" height="156" fill="#d8cbb8"/><rect x="180" y="72" width="72" height="156" fill="#2b6cb0"/><path d="M180 80 q36 12 72 0" stroke="#ffffff" stroke-width="3" fill="none" opacity=".55"/><path d="M180 100 q36 12 72 0" stroke="#ffffff" stroke-width="3" fill="none" opacity=".55"/><path d="M180 120 q36 12 72 0" stroke="#ffffff" stroke-width="3" fill="none" opacity=".55"/><path d="M180 140 q36 12 72 0" stroke="#ffffff" stroke-width="3" fill="none" opacity=".55"/><path d="M180 160 q36 12 72 0" stroke="#ffffff" stroke-width="3" fill="none" opacity=".55"/><path d="M180 180 q36 12 72 0" stroke="#ffffff" stroke-width="3" fill="none" opacity=".55"/><path d="M180 200 q36 12 72 0" stroke="#ffffff" stroke-width="3" fill="none" opacity=".55"/><path d="M180 220 q36 12 72 0" stroke="#ffffff" stroke-width="3" fill="none" opacity=".55"/><rect x="252" y="72" width="26" height="156" fill="#e9e2d5"/><rect x="150" y="72" width="128" height="156" fill="none" stroke="#1f5290" stroke-width="3"/><rect x="360" y="120" width="16" height="70" rx="8" fill="#ffffff" stroke="#1f5290" stroke-width="3"/><circle cx="368" cy="196" r="15" fill="#2b6cb0"/><rect x="364" y="140" width="8" height="52" rx="4" fill="#2b6cb0"/><path d="M300 150 q30 -8 52 0" stroke="#2b6cb0" stroke-width="3" fill="none" stroke-dasharray="2 6"/></g></svg>