<svg xmlns="http://www.w3.org/2000/svg" viewBox="0 0 480 300" fill="none"><defs><linearGradient id="sky" x1="0" y1="0" x2="0" y2="1"><stop offset="0" stop-color="#e7f0fa"/><stop offset="1" stop-color="#ffffff"/></linearGradient></defs><rect width="480" height="300" fill="url(#sky)"/><rect x="0" y="232" width="480" height="68" fill="#d3e3f4"/><line x1="448" y1="56" x2="460" y2="56" stroke="#f4b740" stroke-width="5" stroke-linecap="round" opacity=".85"/><line x1="443" y1="75" x2="453" y2="81" stroke="#f4b740" stroke-width="5" stroke-linecap="round" opacity=".85"/><line x1="429" y1="89" x2="435" y2="99" stroke="#f4b740" stroke-width="5" stroke-linecap="round" opacity=".85"/><line x1="410" y1="94" x2="410" y2="106" stroke="#f4b740" stroke-width="5" stroke-linecap="round" opacity=".85"/><line x1="391" y1="89" x2="385" y2="99" stroke="#f4b740" stroke-width="5" stroke-linecap="round" opacity=".85"/><line x1="377" y1="75" x2="367" y2="81" stroke="#f4b740" stroke-width="5" stroke-linecap="round" opacity=".85"/><line x1="372" y1="56" x2="360" y2="56" stroke="#f4b740" stroke-width="5" stroke-linecap="round" opacity=".85"/><line x1="377" y1="37" x2="367" y2="31" stroke="#f4b740" stroke-width="5" stroke-linecap="round" opacity=".85"/><line x1="391" y1="23" x2="385" y2="13" stroke="#f4b740" stroke-width="5" stroke-linecap="round" opacity=".85"/><line x1="410" y1="18" x2="410" y2="6" stroke="#f4b740" stroke-width="5" stroke-linecap="round" opacity=".85"/><line x1="429" y1="23" x2="435" y2="13" stroke="#f4b740" stroke-width="5" stroke-linecap="round" opacity=".85"/><line x1="443" y1="37" x2="453" y2="31" stroke="#f4b740" stroke-width="5" stroke-linecap="round" opacity=".85"/><circle cx="410" cy="56" r="30" fill="#f4b740"/><rect x="150" y="70" width="60" height="160" fill="#e9ded0"/><rect x="210" y="70" width="34" height="160" fill="#2b6cb0"/><path d="M210 78 q17 9 34 0" stroke="#1f5290" stroke-width="2" fill="none" opacity=".5"/><path d="M210 96 q17 9 34 0" stroke="#1f5290" stroke-width="2" fill="none" opacity=".5"/><path d="M210 114 q17 9 34 0" stroke="#1f5290" stroke-width="2" fill="none" opacity=".5"/><path d="M210 132 q17 9 34 0" stroke="#1f5290" stroke-width="2" fill="none" opacity=".5"/><path d="M210 150 q17 9 34 0" stroke="#1f5290" stroke-width="2" fill="none" opacity=".5"/><path d="M210 168 q17 9 34 0" stroke="#1f5290" stroke-width="2" fill="none" opacity=".5"/><path d="M210 186 q17 9 34 0" stroke="#1f5290" stroke-width="2" fill="none" opacity=".5"/><path d="M210 204 q17 9 34 0" stroke="#1f5290" stroke-width="2" fill="none" opacity=".5"/><path d="M210 222 q17 9 34 0" stroke="#1f5290" stroke-width="2" fill="none" opacity=".5"/><rect x="244" y="70" width="18" height="160" fill="#1f5290"/><rect x="262" y="70" width="150" height="160" fill="#cfe6f2" opacity=".5"/><text x="330" y="160" font-family="sans-serif" font-size="34" fill="#1f5290" text-anchor="middle">°</text><circle cx="330" cy="150" r="4" fill="#1f5290"/></svg>