<svg xmlns="http://www.w3.org/2000/svg" viewBox="0 0 400 400" fill="none"><defs><linearGradient id="sky" x1="0" y1="0" x2="0" y2="1"><stop offset="0" stop-color="#f8efda"/><stop offset="1" stop-color="#ffffff"/></linearGradient></defs><rect width="400" height="400" fill="url(#sky)"/><g transform="translate(0,150) scale(0.83333)"><line x1="98" y1="58" x2="110" y2="58" stroke="#f4b740" stroke-width="5" stroke-linecap="round" opacity=".85"/><line x1="93" y1="77" x2="103" y2="83" stroke="#f4b740" stroke-width="5" stroke-linecap="round" opacity=".85"/><line x1="79" y1="91" x2="85" y2="101" stroke="#f4b740" stroke-width="5" stroke-linecap="round" opacity=".85"/><line x1="60" y1="96" x2="60" y2="108" stroke="#f4b740" stroke-width="5" stroke-linecap="round" opacity=".85"/><line x1="41" y1="91" x2="35" y2="101" stroke="#f4b740" stroke-width="5" stroke-linecap="round" opacity=".85"/><line x1="27" y1="77" x2="17" y2="83" stroke="#f4b740" stroke-width="5" stroke-linecap="round" opacity=".85"/><line x1="22" y1="58" x2="10" y2="58" stroke="#f4b740" stroke-width="5" stroke-linecap="round" opacity=".85"/><line x1="27" y1="39" x2="17" y2="33" stroke="#f4b740" stroke-width="5" stroke-linecap="round" opacity=".85"/><line x1="41" y1="25" x2="35" y2="15" stroke="#f4b740" stroke-width="5" stroke-linecap="round" opacity=".85"/><line x1="60" y1="20" x2="60" y2="8" stroke="#f4b740" stroke-width="5" stroke-linecap="round" opacity=".85"/><line x1="79" y1="25" x2="85" y2="15" stroke="#f4b740" stroke-width="5" stroke-linecap="round" opacity=".85"/><line x1="93" y1="39" x2="103" y2="33" stroke="#f4b740" stroke-width="5" stroke-linecap="round" opacity=".85"/><circle cx="60" cy="58" r="30" fill="#f4b740"/><rect x="0" y="232" width="480" height="68" fill="#f0e0bd"/><rect x="150" y="80" width="180" height="150" rx="8" fill="#ffffff" stroke="#8f5e14" stroke-width="4"/><rect x="163" y="93" width="70" height="124" fill="#cfe6f2"/><rect x="247" y="93" width="70" height="124" fill="#cfe6f2" opacity=".6"/><path d="M247 155 l70 -18 l0 96 l-70 -18z" fill="#b7791f" opacity=".85"/><path d="M60 150 q40 -14 80 0" stroke="#b7791f" stroke-width="5" fill="none" marker-end=""/><path d="M132 143 l14 7 l-14 7" fill="none" stroke="#b7791f" stroke-width="5" stroke-linecap="round"/><path d="M60 185 q40 -14 80 0" stroke="#8f5e14" stroke-width="5" fill="none"/><path d="M132 178 l14 7 l-14 7" fill="none" stroke="#8f5e14" stroke-width="5" stroke-linecap="round"/><circle cx="400" cy="150" r="30" fill="#b7791f" stroke="#8f5e14" stroke-width="4"/><line x1="400" y1="150" x2="400" y2="131" stroke="#ffffff" stroke-width="5" stroke-linecap="round"/><line x1="400" y1="150" x2="415" y2="159" stroke="#ffffff" stroke-width="5" stroke-linecap="round"/><circle cx="400" cy="150" r="3.5" fill="#ffffff"/></g></svg>