<svg xmlns="http://www.w3.org/2000/svg" viewBox="0 0 480 300" fill="none"><defs><linearGradient id="sky" x1="0" y1="0" x2="0" y2="1"><stop offset="0" stop-color="#f8efda"/><stop offset="1" stop-color="#ffffff"/></linearGradient></defs><rect width="480" height="300" fill="url(#sky)"/><rect width="480" height="300" fill="#8f5e14" opacity=".08"/><circle cx="405" cy="60" r="26" fill="#f4b740"/><circle cx="393" cy="52" r="26" fill="#f8efda"/><circle cx="80" cy="40" r="2.5" fill="#8f5e14"/><circle cx="150" cy="77" r="2.5" fill="#8f5e14"/><circle cx="220" cy="64" r="2.5" fill="#8f5e14"/><circle cx="290" cy="51" r="2.5" fill="#8f5e14"/><circle cx="360" cy="88" r="2.5" fill="#8f5e14"/><circle cx="430" cy="75" r="2.5" fill="#8f5e14"/><rect x="0" y="232" width="480" height="68" fill="#f0e0bd"/><rect x="150" y="90" width="180" height="140" rx="8" fill="#ffffff" stroke="#8f5e14" stroke-width="4"/><rect x="163" y="103" width="154" height="114" fill="#cfe6f2" opacity=".7"/><path d="M110 150 q40 -14 60 0" stroke="#b7791f" stroke-width="5" fill="none"/><path d="M162 143 l14 7 l-14 7" fill="none" stroke="#b7791f" stroke-width="5" stroke-linecap="round"/><path d="M110 185 q40 14 60 0" stroke="#b7791f" stroke-width="5" fill="none"/><path d="M162 178 l14 7 l-14 7" fill="none" stroke="#b7791f" stroke-width="5" stroke-linecap="round"/></svg>