<svg xmlns="http://www.w3.org/2000/svg" viewBox="0 0 400 400" fill="none"><defs><linearGradient id="sky" x1="0" y1="0" x2="0" y2="1"><stop offset="0" stop-color="#f8efda"/><stop offset="1" stop-color="#ffffff"/></linearGradient></defs><rect width="400" height="400" fill="url(#sky)"/><g transform="translate(0,150) scale(0.83333)"><rect x="0" y="-200" width="480" height="500" fill="#1e2c40"/><rect x="0" y="232" width="480" height="68" fill="#141d2b"/><circle cx="54" cy="34" r="1.6" fill="#f2f5ff" opacity=".85"/><circle cx="106" cy="75" r="2.6" fill="#f2f5ff" opacity=".85"/><circle cx="158" cy="62" r="1.6" fill="#f2f5ff" opacity=".85"/><circle cx="210" cy="49" r="2.6" fill="#f2f5ff" opacity=".85"/><circle cx="262" cy="36" r="1.6" fill="#f2f5ff" opacity=".85"/><circle cx="314" cy="77" r="2.6" fill="#f2f5ff" opacity=".85"/><circle cx="366" cy="64" r="1.6" fill="#f2f5ff" opacity=".85"/><circle cx="418" cy="51" r="2.6" fill="#f2f5ff" opacity=".85"/><circle cx="402" cy="64" r="30" fill="#eef0dc"/><circle cx="390" cy="56" r="27" fill="#1e2c40"/><rect x="126" y="72" width="150" height="184" rx="20" fill="#b7791f" opacity=".28"/><rect x="150" y="96" width="180" height="140" rx="8" fill="#f4f7fb" stroke="#0d1420" stroke-width="4"/><rect x="163" y="109" width="70" height="114" fill="#b7791f"/><rect x="163" y="109" width="70" height="114" fill="#ffffff" opacity=".18"/><rect x="247" y="109" width="70" height="114" fill="#cfe6f2" opacity=".5"/><path d="M247 166 l70 -16 l0 74 l-70 -16z" fill="#cfe0ee"/><path d="M108 150 q40 -14 62 0" stroke="#cfe0ee" stroke-width="5" fill="none"/><path d="M162 143 l14 7 l-14 7" fill="none" stroke="#cfe0ee" stroke-width="5" stroke-linecap="round" stroke-linejoin="round"/><path d="M108 190 q40 14 62 0" stroke="#cfe0ee" stroke-width="5" fill="none"/><path d="M162 183 l14 7 l-14 7" fill="none" stroke="#cfe0ee" stroke-width="5" stroke-linecap="round" stroke-linejoin="round"/></g></svg>