<svg xmlns="http://www.w3.org/2000/svg" viewBox="0 0 480 300" fill="none"><defs><linearGradient id="sky" x1="0" y1="0" x2="0" y2="1"><stop offset="0" stop-color="#f8efda"/><stop offset="1" stop-color="#ffffff"/></linearGradient></defs><rect width="480" height="300" fill="url(#sky)"/><rect x="0" y="232" width="480" height="68" fill="#f0e0bd"/><line x1="448" y1="56" x2="460" y2="56" stroke="#f4b740" stroke-width="5" stroke-linecap="round" opacity=".85"/><line x1="443" y1="75" x2="453" y2="81" stroke="#f4b740" stroke-width="5" stroke-linecap="round" opacity=".85"/><line x1="429" y1="89" x2="435" y2="99" stroke="#f4b740" stroke-width="5" stroke-linecap="round" opacity=".85"/><line x1="410" y1="94" x2="410" y2="106" stroke="#f4b740" stroke-width="5" stroke-linecap="round" opacity=".85"/><line x1="391" y1="89" x2="385" y2="99" stroke="#f4b740" stroke-width="5" stroke-linecap="round" opacity=".85"/><line x1="377" y1="75" x2="367" y2="81" stroke="#f4b740" stroke-width="5" stroke-linecap="round" opacity=".85"/><line x1="372" y1="56" x2="360" y2="56" stroke="#f4b740" stroke-width="5" stroke-linecap="round" opacity=".85"/><line x1="377" y1="37" x2="367" y2="31" stroke="#f4b740" stroke-width="5" stroke-linecap="round" opacity=".85"/><line x1="391" y1="23" x2="385" y2="13" stroke="#f4b740" stroke-width="5" stroke-linecap="round" opacity=".85"/><line x1="410" y1="18" x2="410" y2="6" stroke="#f4b740" stroke-width="5" stroke-linecap="round" opacity=".85"/><line x1="429" y1="23" x2="435" y2="13" stroke="#f4b740" stroke-width="5" stroke-linecap="round" opacity=".85"/><line x1="443" y1="37" x2="453" y2="31" stroke="#f4b740" stroke-width="5" stroke-linecap="round" opacity=".85"/><circle cx="410" cy="56" r="30" fill="#f4b740"/><rect x="90" y="90" width="140" height="140" rx="6" fill="#ffffff" stroke="#8f5e14" stroke-width="3"/><rect x="250" y="90" width="140" height="140" rx="6" fill="#b7791f" opacity=".18" stroke="#8f5e14" stroke-width="3"/><line x1="160" y1="90" x2="160" y2="230" stroke="#8f5e14" stroke-width="2" opacity=".4"/><line x1="320" y1="90" x2="320" y2="230" stroke="#8f5e14" stroke-width="2" opacity=".4"/><circle cx="125" cy="160" r="12" fill="#f4b740"/><text x="118" y="220" font-family="sans-serif" font-size="20" fill="#8f5e14">☀</text><path d="M232 130 q20 -10 40 0" stroke="#b7791f" stroke-width="6" fill="none"/><path d="M264 122 l12 8 l-12 8" fill="none" stroke="#b7791f" stroke-width="6" stroke-linecap="round"/><circle cx="355" cy="160" r="12" fill="#b7791f"/></svg>