<svg xmlns="http://www.w3.org/2000/svg" viewBox="0 0 480 300" fill="none"><defs><linearGradient id="sky" x1="0" y1="0" x2="0" y2="1"><stop offset="0" stop-color="#f8efda"/><stop offset="1" stop-color="#ffffff"/></linearGradient></defs><rect width="480" height="300" fill="url(#sky)"/><rect x="0" y="232" width="480" height="68" fill="#f0e0bd"/><line x1="98" y1="58" x2="110" y2="58" stroke="#f4b740" stroke-width="5" stroke-linecap="round" opacity=".85"/><line x1="93" y1="77" x2="103" y2="83" stroke="#f4b740" stroke-width="5" stroke-linecap="round" opacity=".85"/><line x1="79" y1="91" x2="85" y2="101" stroke="#f4b740" stroke-width="5" stroke-linecap="round" opacity=".85"/><line x1="60" y1="96" x2="60" y2="108" stroke="#f4b740" stroke-width="5" stroke-linecap="round" opacity=".85"/><line x1="41" y1="91" x2="35" y2="101" stroke="#f4b740" stroke-width="5" stroke-linecap="round" opacity=".85"/><line x1="27" y1="77" x2="17" y2="83" stroke="#f4b740" stroke-width="5" stroke-linecap="round" opacity=".85"/><line x1="22" y1="58" x2="10" y2="58" stroke="#f4b740" stroke-width="5" stroke-linecap="round" opacity=".85"/><line x1="27" y1="39" x2="17" y2="33" stroke="#f4b740" stroke-width="5" stroke-linecap="round" opacity=".85"/><line x1="41" y1="25" x2="35" y2="15" stroke="#f4b740" stroke-width="5" stroke-linecap="round" opacity=".85"/><line x1="60" y1="20" x2="60" y2="8" stroke="#f4b740" stroke-width="5" stroke-linecap="round" opacity=".85"/><line x1="79" y1="25" x2="85" y2="15" stroke="#f4b740" stroke-width="5" stroke-linecap="round" opacity=".85"/><line x1="93" y1="39" x2="103" y2="33" stroke="#f4b740" stroke-width="5" stroke-linecap="round" opacity=".85"/><circle cx="60" cy="58" r="30" fill="#f4b740"/><rect x="120" y="80" width="150" height="150" rx="8" fill="#ffffff" stroke="#8f5e14" stroke-width="4"/><rect x="133" y="95" width="124" height="9" rx="3" fill="#b7791f" opacity=".8"/><rect x="133" y="110" width="124" height="9" rx="3" fill="#b7791f" opacity=".8"/><rect x="133" y="125" width="124" height="9" rx="3" fill="#b7791f" opacity=".8"/><rect x="133" y="140" width="124" height="9" rx="3" fill="#b7791f" opacity=".8"/><rect x="133" y="155" width="124" height="9" rx="3" fill="#b7791f" opacity=".8"/><rect x="133" y="170" width="124" height="9" rx="3" fill="#b7791f" opacity=".8"/><rect x="133" y="185" width="124" height="9" rx="3" fill="#b7791f" opacity=".8"/><rect x="320" y="120" width="90" height="90" rx="10" fill="#b7791f"/><circle cx="352" cy="155" r="7" fill="#ffffff"/><circle cx="378" cy="155" r="7" fill="#ffffff"/><rect x="358" y="175" width="14" height="18" rx="3" fill="#ffffff"/></svg>