<svg xmlns="http://www.w3.org/2000/svg" viewBox="0 0 480 300" fill="none"><defs><linearGradient id="sky" x1="0" y1="0" x2="0" y2="1"><stop offset="0" stop-color="#f8efda"/><stop offset="1" stop-color="#ffffff"/></linearGradient></defs><rect width="480" height="300" fill="url(#sky)"/><rect x="0" y="232" width="480" height="68" fill="#f0e0bd"/><rect x="150" y="80" width="180" height="150" rx="14" fill="#ffffff" stroke="#8f5e14" stroke-width="4"/><path d="M180 165 a60 60 0 0 1 120 0" fill="none" stroke="#f0e0bd" stroke-width="12"/><path d="M180 165 a60 60 0 0 1 78 -55" fill="none" stroke="#b7791f" stroke-width="12" stroke-linecap="round"/><line x1="240" y1="165" x2="272" y2="128" stroke="#8f5e14" stroke-width="5" stroke-linecap="round"/><circle cx="240" cy="165" r="8" fill="#8f5e14"/><text x="240" y="212" font-family="sans-serif" font-size="20" font-weight="700" fill="#8f5e14" text-anchor="middle">CO₂ · Tª · HR</text><line x1="448" y1="56" x2="460" y2="56" stroke="#f4b740" stroke-width="5" stroke-linecap="round" opacity=".85"/><line x1="443" y1="75" x2="453" y2="81" stroke="#f4b740" stroke-width="5" stroke-linecap="round" opacity=".85"/><line x1="429" y1="89" x2="435" y2="99" stroke="#f4b740" stroke-width="5" stroke-linecap="round" opacity=".85"/><line x1="410" y1="94" x2="410" y2="106" stroke="#f4b740" stroke-width="5" stroke-linecap="round" opacity=".85"/><line x1="391" y1="89" x2="385" y2="99" stroke="#f4b740" stroke-width="5" stroke-linecap="round" opacity=".85"/><line x1="377" y1="75" x2="367" y2="81" stroke="#f4b740" stroke-width="5" stroke-linecap="round" opacity=".85"/><line x1="372" y1="56" x2="360" y2="56" stroke="#f4b740" stroke-width="5" stroke-linecap="round" opacity=".85"/><line x1="377" y1="37" x2="367" y2="31" stroke="#f4b740" stroke-width="5" stroke-linecap="round" opacity=".85"/><line x1="391" y1="23" x2="385" y2="13" stroke="#f4b740" stroke-width="5" stroke-linecap="round" opacity=".85"/><line x1="410" y1="18" x2="410" y2="6" stroke="#f4b740" stroke-width="5" stroke-linecap="round" opacity=".85"/><line x1="429" y1="23" x2="435" y2="13" stroke="#f4b740" stroke-width="5" stroke-linecap="round" opacity=".85"/><line x1="443" y1="37" x2="453" y2="31" stroke="#f4b740" stroke-width="5" stroke-linecap="round" opacity=".85"/><circle cx="410" cy="56" r="30" fill="#f4b740"/></svg>