<svg xmlns="http://www.w3.org/2000/svg" viewBox="0 0 400 400" fill="none"><defs><linearGradient id="sky" x1="0" y1="0" x2="0" y2="1"><stop offset="0" stop-color="#f8efda"/><stop offset="1" stop-color="#ffffff"/></linearGradient></defs><rect width="400" height="400" fill="url(#sky)"/><g transform="translate(0,150) scale(0.83333)"><rect x="0" y="232" width="480" height="68" fill="#f0e0bd"/><line x1="448" y1="56" x2="460" y2="56" stroke="#f4b740" stroke-width="5" stroke-linecap="round" opacity=".85"/><line x1="443" y1="75" x2="453" y2="81" stroke="#f4b740" stroke-width="5" stroke-linecap="round" opacity=".85"/><line x1="429" y1="89" x2="435" y2="99" stroke="#f4b740" stroke-width="5" stroke-linecap="round" opacity=".85"/><line x1="410" y1="94" x2="410" y2="106" stroke="#f4b740" stroke-width="5" stroke-linecap="round" opacity=".85"/><line x1="391" y1="89" x2="385" y2="99" stroke="#f4b740" stroke-width="5" stroke-linecap="round" opacity=".85"/><line x1="377" y1="75" x2="367" y2="81" stroke="#f4b740" stroke-width="5" stroke-linecap="round" opacity=".85"/><line x1="372" y1="56" x2="360" y2="56" stroke="#f4b740" stroke-width="5" stroke-linecap="round" opacity=".85"/><line x1="377" y1="37" x2="367" y2="31" stroke="#f4b740" stroke-width="5" stroke-linecap="round" opacity=".85"/><line x1="391" y1="23" x2="385" y2="13" stroke="#f4b740" stroke-width="5" stroke-linecap="round" opacity=".85"/><line x1="410" y1="18" x2="410" y2="6" stroke="#f4b740" stroke-width="5" stroke-linecap="round" opacity=".85"/><line x1="429" y1="23" x2="435" y2="13" stroke="#f4b740" stroke-width="5" stroke-linecap="round" opacity=".85"/><line x1="443" y1="37" x2="453" y2="31" stroke="#f4b740" stroke-width="5" stroke-linecap="round" opacity=".85"/><circle cx="410" cy="56" r="30" fill="#f4b740"/><rect x="150" y="108" width="184" height="60" rx="10" fill="#ffffff" stroke="#8f5e14" stroke-width="3"/><rect x="162" y="120" width="160" height="36" rx="6" fill="#cfe6f2"/><line x1="178" y1="120" x2="178" y2="156" stroke="#ffffff" stroke-width="4" opacity=".7"/><line x1="206" y1="120" x2="206" y2="156" stroke="#ffffff" stroke-width="4" opacity=".7"/><line x1="234" y1="120" x2="234" y2="156" stroke="#ffffff" stroke-width="4" opacity=".7"/><line x1="262" y1="120" x2="262" y2="156" stroke="#ffffff" stroke-width="4" opacity=".7"/><line x1="290" y1="120" x2="290" y2="156" stroke="#ffffff" stroke-width="4" opacity=".7"/><text x="242" y="145" font-family="sans-serif" font-size="17" font-weight="700" fill="#8f5e14" text-anchor="middle">LED</text><line x1="192" y1="174" x2="192" y2="194" stroke="#f4b740" stroke-width="3" stroke-linecap="round" opacity=".7"/><line x1="222" y1="174" x2="222" y2="194" stroke="#f4b740" stroke-width="3" stroke-linecap="round" opacity=".7"/><line x1="252" y1="174" x2="252" y2="194" stroke="#f4b740" stroke-width="3" stroke-linecap="round" opacity=".7"/><line x1="282" y1="174" x2="282" y2="194" stroke="#f4b740" stroke-width="3" stroke-linecap="round" opacity=".7"/><rect x="58" y="118" width="72" height="16" rx="8" fill="#e6e0d2" stroke="#8f5e14" stroke-width="2"/><line x1="56" y1="136" x2="132" y2="116" stroke="#b7791f" stroke-width="4" stroke-linecap="round"/></g></svg>