<svg xmlns="http://www.w3.org/2000/svg" viewBox="0 0 400 400" fill="none"><defs><linearGradient id="sky" x1="0" y1="0" x2="0" y2="1"><stop offset="0" stop-color="#f8efda"/><stop offset="1" stop-color="#ffffff"/></linearGradient></defs><rect width="400" height="400" fill="url(#sky)"/><g transform="translate(0,150) scale(0.83333)"><rect x="0" y="232" width="480" height="68" fill="#f0e0bd"/><line x1="98" y1="56" x2="110" y2="56" stroke="#f4b740" stroke-width="5" stroke-linecap="round" opacity=".85"/><line x1="93" y1="75" x2="103" y2="81" stroke="#f4b740" stroke-width="5" stroke-linecap="round" opacity=".85"/><line x1="79" y1="89" x2="85" y2="99" stroke="#f4b740" stroke-width="5" stroke-linecap="round" opacity=".85"/><line x1="60" y1="94" x2="60" y2="106" stroke="#f4b740" stroke-width="5" stroke-linecap="round" opacity=".85"/><line x1="41" y1="89" x2="35" y2="99" stroke="#f4b740" stroke-width="5" stroke-linecap="round" opacity=".85"/><line x1="27" y1="75" x2="17" y2="81" stroke="#f4b740" stroke-width="5" stroke-linecap="round" opacity=".85"/><line x1="22" y1="56" x2="10" y2="56" stroke="#f4b740" stroke-width="5" stroke-linecap="round" opacity=".85"/><line x1="27" y1="37" x2="17" y2="31" stroke="#f4b740" stroke-width="5" stroke-linecap="round" opacity=".85"/><line x1="41" y1="23" x2="35" y2="13" stroke="#f4b740" stroke-width="5" stroke-linecap="round" opacity=".85"/><line x1="60" y1="18" x2="60" y2="6" stroke="#f4b740" stroke-width="5" stroke-linecap="round" opacity=".85"/><line x1="79" y1="23" x2="85" y2="13" stroke="#f4b740" stroke-width="5" stroke-linecap="round" opacity=".85"/><line x1="93" y1="37" x2="103" y2="31" stroke="#f4b740" stroke-width="5" stroke-linecap="round" opacity=".85"/><circle cx="60" cy="56" r="30" fill="#f4b740"/><rect x="160" y="88" width="160" height="152" rx="10" fill="#ffffff" stroke="#8f5e14" stroke-width="3"/><rect x="210" y="80" width="60" height="20" rx="6" fill="#8f5e14"/><rect x="178" y="116" width="16" height="16" rx="3" fill="#cfe6f2" stroke="#8f5e14" stroke-width="1.5"/><path d="M181 124 l4 4 l7 -8" fill="none" stroke="#b7791f" stroke-width="2.5" stroke-linecap="round" stroke-linejoin="round"/><rect x="202" y="121" width="102" height="6" rx="3" fill="#8f5e14" opacity=".25"/><rect x="178" y="146" width="16" height="16" rx="3" fill="#cfe6f2" stroke="#8f5e14" stroke-width="1.5"/><path d="M181 154 l4 4 l7 -8" fill="none" stroke="#b7791f" stroke-width="2.5" stroke-linecap="round" stroke-linejoin="round"/><rect x="202" y="151" width="102" height="6" rx="3" fill="#8f5e14" opacity=".25"/><rect x="178" y="176" width="16" height="16" rx="3" fill="#cfe6f2" stroke="#8f5e14" stroke-width="1.5"/><path d="M181 184 l4 4 l7 -8" fill="none" stroke="#b7791f" stroke-width="2.5" stroke-linecap="round" stroke-linejoin="round"/><rect x="202" y="181" width="102" height="6" rx="3" fill="#8f5e14" opacity=".25"/><rect x="178" y="206" width="16" height="16" rx="3" fill="#cfe6f2" stroke="#8f5e14" stroke-width="1.5"/><path d="M181 214 l4 4 l7 -8" fill="none" stroke="#b7791f" stroke-width="2.5" stroke-linecap="round" stroke-linejoin="round"/><rect x="202" y="211" width="102" height="6" rx="3" fill="#8f5e14" opacity=".25"/></g></svg>