<svg xmlns="http://www.w3.org/2000/svg" viewBox="0 0 400 400" fill="none"><defs><linearGradient id="sky" x1="0" y1="0" x2="0" y2="1"><stop offset="0" stop-color="#f7e8ee"/><stop offset="1" stop-color="#ffffff"/></linearGradient></defs><rect width="400" height="400" fill="url(#sky)"/><g transform="translate(0,150) scale(0.83333)"><rect x="88" y="86" width="156" height="156" rx="16" fill="#ffffff" stroke="#7d3450" stroke-width="3"/><circle cx="166" cy="164" r="58" fill="#a04668" opacity=".16" stroke="#7d3450" stroke-width="3"/><path d="M166 164 L218 164 A52 52 0 0 0 203 127 Z" fill="#a04668" opacity=".8" transform="rotate(0 166 164)"/><path d="M166 164 L218 164 A52 52 0 0 0 203 127 Z" fill="#a04668" opacity=".8" transform="rotate(72 166 164)"/><path d="M166 164 L218 164 A52 52 0 0 0 203 127 Z" fill="#a04668" opacity=".8" transform="rotate(144 166 164)"/><path d="M166 164 L218 164 A52 52 0 0 0 203 127 Z" fill="#a04668" opacity=".8" transform="rotate(216 166 164)"/><path d="M166 164 L218 164 A52 52 0 0 0 203 127 Z" fill="#a04668" opacity=".8" transform="rotate(288 166 164)"/><circle cx="166" cy="164" r="14" fill="#7d3450"/><rect x="244" y="138" width="150" height="52" rx="12" fill="#eef1f5" stroke="#7d3450" stroke-width="3"/><path d="M266 164 h96" stroke="#a04668" stroke-width="6" stroke-dasharray="2 10" stroke-linecap="round"/><path d="M354 154 l15 10 l-15 10" fill="none" stroke="#a04668" stroke-width="6" stroke-linecap="round" stroke-linejoin="round"/></g></svg>