<svg xmlns="http://www.w3.org/2000/svg" viewBox="0 0 400 400" fill="none"><defs><linearGradient id="sky" x1="0" y1="0" x2="0" y2="1"><stop offset="0" stop-color="#f7e8ee"/><stop offset="1" stop-color="#ffffff"/></linearGradient></defs><rect width="400" height="400" fill="url(#sky)"/><g transform="translate(0,150) scale(0.83333)"><rect x="0" y="232" width="480" height="68" fill="#efd4de"/><line x1="448" y1="56" x2="460" y2="56" stroke="#f4b740" stroke-width="5" stroke-linecap="round" opacity=".85"/><line x1="443" y1="75" x2="453" y2="81" stroke="#f4b740" stroke-width="5" stroke-linecap="round" opacity=".85"/><line x1="429" y1="89" x2="435" y2="99" stroke="#f4b740" stroke-width="5" stroke-linecap="round" opacity=".85"/><line x1="410" y1="94" x2="410" y2="106" stroke="#f4b740" stroke-width="5" stroke-linecap="round" opacity=".85"/><line x1="391" y1="89" x2="385" y2="99" stroke="#f4b740" stroke-width="5" stroke-linecap="round" opacity=".85"/><line x1="377" y1="75" x2="367" y2="81" stroke="#f4b740" stroke-width="5" stroke-linecap="round" opacity=".85"/><line x1="372" y1="56" x2="360" y2="56" stroke="#f4b740" stroke-width="5" stroke-linecap="round" opacity=".85"/><line x1="377" y1="37" x2="367" y2="31" stroke="#f4b740" stroke-width="5" stroke-linecap="round" opacity=".85"/><line x1="391" y1="23" x2="385" y2="13" stroke="#f4b740" stroke-width="5" stroke-linecap="round" opacity=".85"/><line x1="410" y1="18" x2="410" y2="6" stroke="#f4b740" stroke-width="5" stroke-linecap="round" opacity=".85"/><line x1="429" y1="23" x2="435" y2="13" stroke="#f4b740" stroke-width="5" stroke-linecap="round" opacity=".85"/><line x1="443" y1="37" x2="453" y2="31" stroke="#f4b740" stroke-width="5" stroke-linecap="round" opacity=".85"/><circle cx="410" cy="56" r="30" fill="#f4b740"/><rect x="120" y="110" width="150" height="120" rx="10" fill="#ffffff" stroke="#7d3450" stroke-width="3"/><rect x="138" y="128" width="55" height="84" rx="4" fill="#cfe6f2"/><line x1="146" y1="138" x2="185" y2="138" stroke="#7d3450" stroke-width="3" opacity=".5"/><line x1="146" y1="152" x2="185" y2="152" stroke="#7d3450" stroke-width="3" opacity=".5"/><line x1="146" y1="166" x2="185" y2="166" stroke="#7d3450" stroke-width="3" opacity=".5"/><line x1="146" y1="180" x2="185" y2="180" stroke="#7d3450" stroke-width="3" opacity=".5"/><line x1="146" y1="194" x2="185" y2="194" stroke="#7d3450" stroke-width="3" opacity=".5"/><circle cx="230" cy="170" r="22" fill="#a04668" opacity=".25" stroke="#7d3450" stroke-width="3"/><circle cx="230" cy="170" r="6" fill="#7d3450"/><rect x="270" y="140" width="120" height="24" rx="6" fill="#efd4de" stroke="#7d3450" stroke-width="2"/><rect x="270" y="180" width="120" height="24" rx="6" fill="#efd4de" stroke="#7d3450" stroke-width="2"/><path d="M285 152 h80" stroke="#a04668" stroke-width="4" stroke-dasharray="2 7" stroke-linecap="round"/><path d="M365 192 h-80" stroke="#7d3450" stroke-width="4" stroke-dasharray="2 7" stroke-linecap="round"/></g></svg>