<svg xmlns="http://www.w3.org/2000/svg" viewBox="0 0 400 400" fill="none"><defs><linearGradient id="sky" x1="0" y1="0" x2="0" y2="1"><stop offset="0" stop-color="#f7e8ee"/><stop offset="1" stop-color="#ffffff"/></linearGradient></defs><rect width="400" height="400" fill="url(#sky)"/><g transform="translate(0,150) scale(0.83333)"><rect x="60" y="148" width="118" height="18" fill="#eef1f5" stroke="#7d3450" stroke-width="2.5"/><path d="M178 148 l18 -10 v38 l-18 -10 z" fill="#eef1f5" stroke="#7d3450" stroke-width="2.5"/><rect x="196" y="136" width="140" height="40" fill="#eef1f5" stroke="#7d3450" stroke-width="2.5"/><rect x="92" y="106" width="18" height="42" fill="#eef1f5" stroke="#7d3450" stroke-width="2.5"/><rect x="85" y="91" width="32" height="13" rx="3" fill="#a04668"/><rect x="150" y="106" width="18" height="42" fill="#eef1f5" stroke="#7d3450" stroke-width="2.5"/><rect x="143" y="91" width="32" height="13" rx="3" fill="#a04668"/><rect x="258" y="96" width="18" height="40" fill="#eef1f5" stroke="#7d3450" stroke-width="2.5"/><rect x="251" y="81" width="32" height="13" rx="3" fill="#a04668"/><path d="M92 157 H322" stroke="#a04668" stroke-width="4" stroke-dasharray="2 9" stroke-linecap="round" opacity=".85"/><path d="M314 150 l12 7 l-12 7" fill="none" stroke="#a04668" stroke-width="4" stroke-linecap="round" stroke-linejoin="round"/><rect x="330" y="102" width="112" height="108" rx="12" fill="#ffffff" stroke="#7d3450" stroke-width="3"/><rect x="344" y="124" width="24" height="64" rx="4" fill="#cfe6f2"/><path d="M344 138 q12 -7 24 0" stroke="#7d3450" stroke-width="2" fill="none" opacity=".55"/><path d="M344 154 q12 -7 24 0" stroke="#7d3450" stroke-width="2" fill="none" opacity=".55"/><path d="M344 170 q12 -7 24 0" stroke="#7d3450" stroke-width="2" fill="none" opacity=".55"/><circle cx="404" cy="156" r="26" fill="#a04668" opacity=".2" stroke="#7d3450" stroke-width="3"/><path d="M404 156 L427 156 A23 23 0 0 0 420 140 Z" fill="#a04668" opacity=".85" transform="rotate(0 404 156)"/><path d="M404 156 L427 156 A23 23 0 0 0 420 140 Z" fill="#a04668" opacity=".85" transform="rotate(90 404 156)"/><path d="M404 156 L427 156 A23 23 0 0 0 420 140 Z" fill="#a04668" opacity=".85" transform="rotate(180 404 156)"/><path d="M404 156 L427 156 A23 23 0 0 0 420 140 Z" fill="#a04668" opacity=".85" transform="rotate(270 404 156)"/><circle cx="404" cy="156" r="8" fill="#7d3450"/><path d="M384 102 v-18" stroke="#cfe6f2" stroke-width="6" stroke-linecap="round"/><path d="M420 102 v-18" stroke="#cfe6f2" stroke-width="6" stroke-linecap="round"/></g></svg>