<svg xmlns="http://www.w3.org/2000/svg" viewBox="0 0 400 400" fill="none"><defs><linearGradient id="sky" x1="0" y1="0" x2="0" y2="1"><stop offset="0" stop-color="#f7e8ee"/><stop offset="1" stop-color="#ffffff"/></linearGradient></defs><rect width="400" height="400" fill="url(#sky)"/><g transform="translate(0,150) scale(0.83333)"><rect x="0" y="232" width="480" height="68" fill="#efd4de"/><line x1="448" y1="56" x2="460" y2="56" stroke="#f4b740" stroke-width="5" stroke-linecap="round" opacity=".85"/><line x1="443" y1="75" x2="453" y2="81" stroke="#f4b740" stroke-width="5" stroke-linecap="round" opacity=".85"/><line x1="429" y1="89" x2="435" y2="99" stroke="#f4b740" stroke-width="5" stroke-linecap="round" opacity=".85"/><line x1="410" y1="94" x2="410" y2="106" stroke="#f4b740" stroke-width="5" stroke-linecap="round" opacity=".85"/><line x1="391" y1="89" x2="385" y2="99" stroke="#f4b740" stroke-width="5" stroke-linecap="round" opacity=".85"/><line x1="377" y1="75" x2="367" y2="81" stroke="#f4b740" stroke-width="5" stroke-linecap="round" opacity=".85"/><line x1="372" y1="56" x2="360" y2="56" stroke="#f4b740" stroke-width="5" stroke-linecap="round" opacity=".85"/><line x1="377" y1="37" x2="367" y2="31" stroke="#f4b740" stroke-width="5" stroke-linecap="round" opacity=".85"/><line x1="391" y1="23" x2="385" y2="13" stroke="#f4b740" stroke-width="5" stroke-linecap="round" opacity=".85"/><line x1="410" y1="18" x2="410" y2="6" stroke="#f4b740" stroke-width="5" stroke-linecap="round" opacity=".85"/><line x1="429" y1="23" x2="435" y2="13" stroke="#f4b740" stroke-width="5" stroke-linecap="round" opacity=".85"/><line x1="443" y1="37" x2="453" y2="31" stroke="#f4b740" stroke-width="5" stroke-linecap="round" opacity=".85"/><circle cx="410" cy="56" r="30" fill="#f4b740"/><rect x="130" y="110" width="120" height="120" rx="10" fill="#ffffff" stroke="#7d3450" stroke-width="3"/><circle cx="190" cy="170" r="42" fill="#a04668" opacity=".18" stroke="#7d3450" stroke-width="3"/><path d="M190 170 L228 170 A38 38 0 0 0 217 143 Z" fill="#a04668" opacity=".8" transform="rotate(0 190 170)"/><path d="M190 170 L228 170 A38 38 0 0 0 217 143 Z" fill="#a04668" opacity=".8" transform="rotate(72 190 170)"/><path d="M190 170 L228 170 A38 38 0 0 0 217 143 Z" fill="#a04668" opacity=".8" transform="rotate(144 190 170)"/><path d="M190 170 L228 170 A38 38 0 0 0 217 143 Z" fill="#a04668" opacity=".8" transform="rotate(216 190 170)"/><path d="M190 170 L228 170 A38 38 0 0 0 217 143 Z" fill="#a04668" opacity=".8" transform="rotate(288 190 170)"/><circle cx="190" cy="170" r="10" fill="#7d3450"/><rect x="250" y="150" width="130" height="40" rx="8" fill="#efd4de" stroke="#7d3450" stroke-width="3"/><path d="M270 170 h90" stroke="#a04668" stroke-width="4" stroke-dasharray="2 8" stroke-linecap="round"/><path d="M352 162 l12 8 l-12 8" fill="none" stroke="#a04668" stroke-width="4" stroke-linecap="round"/></g></svg>