<svg xmlns="http://www.w3.org/2000/svg" viewBox="0 0 400 400" fill="none"><defs><linearGradient id="sky" x1="0" y1="0" x2="0" y2="1"><stop offset="0" stop-color="#f7e8ee"/><stop offset="1" stop-color="#ffffff"/></linearGradient></defs><rect width="400" height="400" fill="url(#sky)"/><g transform="translate(0,150) scale(0.83333)"><rect x="92" y="86" width="190" height="160" rx="16" fill="#ffffff" stroke="#7d3450" stroke-width="3"/><rect x="112" y="108" width="70" height="116" rx="6" fill="#cfe6f2"/><line x1="122" y1="120" x2="172" y2="120" stroke="#7d3450" stroke-width="3" opacity=".5"/><line x1="122" y1="137" x2="172" y2="137" stroke="#7d3450" stroke-width="3" opacity=".5"/><line x1="122" y1="154" x2="172" y2="154" stroke="#7d3450" stroke-width="3" opacity=".5"/><line x1="122" y1="171" x2="172" y2="171" stroke="#7d3450" stroke-width="3" opacity=".5"/><line x1="122" y1="188" x2="172" y2="188" stroke="#7d3450" stroke-width="3" opacity=".5"/><line x1="122" y1="205" x2="172" y2="205" stroke="#7d3450" stroke-width="3" opacity=".5"/><circle cx="232" cy="166" r="34" fill="#a04668" opacity=".22" stroke="#7d3450" stroke-width="3"/><path d="M232 166 L262 166 A30 30 0 0 0 253 145 Z" fill="#a04668" opacity=".8" transform="rotate(0 232 166)"/><path d="M232 166 L262 166 A30 30 0 0 0 253 145 Z" fill="#a04668" opacity=".8" transform="rotate(90 232 166)"/><path d="M232 166 L262 166 A30 30 0 0 0 253 145 Z" fill="#a04668" opacity=".8" transform="rotate(180 232 166)"/><path d="M232 166 L262 166 A30 30 0 0 0 253 145 Z" fill="#a04668" opacity=".8" transform="rotate(270 232 166)"/><circle cx="232" cy="166" r="10" fill="#7d3450"/><rect x="282" y="112" width="118" height="32" rx="9" fill="#eef1f5" stroke="#7d3450" stroke-width="2.5"/><rect x="282" y="188" width="118" height="32" rx="9" fill="#eef1f5" stroke="#7d3450" stroke-width="2.5"/><path d="M298 128 h84" stroke="#a04668" stroke-width="5" stroke-dasharray="2 9" stroke-linecap="round"/><path d="M374 119 l13 9 l-13 9" fill="none" stroke="#a04668" stroke-width="5" stroke-linecap="round" stroke-linejoin="round"/><path d="M384 204 h-84" stroke="#7d3450" stroke-width="5" stroke-dasharray="2 9" stroke-linecap="round"/><path d="M308 195 l-13 9 l13 9" fill="none" stroke="#7d3450" stroke-width="5" stroke-linecap="round" stroke-linejoin="round"/></g></svg>