<svg xmlns="http://www.w3.org/2000/svg" viewBox="0 0 400 400" fill="none"><defs><linearGradient id="sky" x1="0" y1="0" x2="0" y2="1"><stop offset="0" stop-color="#f7e8ee"/><stop offset="1" stop-color="#ffffff"/></linearGradient></defs><rect width="400" height="400" fill="url(#sky)"/><g transform="translate(0,150) scale(0.83333)"><rect x="0" y="232" width="480" height="68" fill="#efd4de"/><line x1="98" y1="58" x2="110" y2="58" stroke="#f4b740" stroke-width="5" stroke-linecap="round" opacity=".85"/><line x1="93" y1="77" x2="103" y2="83" stroke="#f4b740" stroke-width="5" stroke-linecap="round" opacity=".85"/><line x1="79" y1="91" x2="85" y2="101" stroke="#f4b740" stroke-width="5" stroke-linecap="round" opacity=".85"/><line x1="60" y1="96" x2="60" y2="108" stroke="#f4b740" stroke-width="5" stroke-linecap="round" opacity=".85"/><line x1="41" y1="91" x2="35" y2="101" stroke="#f4b740" stroke-width="5" stroke-linecap="round" opacity=".85"/><line x1="27" y1="77" x2="17" y2="83" stroke="#f4b740" stroke-width="5" stroke-linecap="round" opacity=".85"/><line x1="22" y1="58" x2="10" y2="58" stroke="#f4b740" stroke-width="5" stroke-linecap="round" opacity=".85"/><line x1="27" y1="39" x2="17" y2="33" stroke="#f4b740" stroke-width="5" stroke-linecap="round" opacity=".85"/><line x1="41" y1="25" x2="35" y2="15" stroke="#f4b740" stroke-width="5" stroke-linecap="round" opacity=".85"/><line x1="60" y1="20" x2="60" y2="8" stroke="#f4b740" stroke-width="5" stroke-linecap="round" opacity=".85"/><line x1="79" y1="25" x2="85" y2="15" stroke="#f4b740" stroke-width="5" stroke-linecap="round" opacity=".85"/><line x1="93" y1="39" x2="103" y2="33" stroke="#f4b740" stroke-width="5" stroke-linecap="round" opacity=".85"/><circle cx="60" cy="58" r="30" fill="#f4b740"/><rect x="130" y="90" width="150" height="140" rx="8" fill="#ffffff" stroke="#7d3450" stroke-width="4"/><rect x="143" y="103" width="124" height="114" fill="#cfe6f2" opacity=".7"/><path d="M143 155 l124 -16 l0 78 l-124 -16z" fill="#a04668" opacity=".8"/><circle cx="360" cy="150" r="40" fill="#a04668" opacity=".18" stroke="#7d3450" stroke-width="3"/><path d="M360 150 L396 150 A36 36 0 0 0 385 125 Z" fill="#a04668" opacity=".85" transform="rotate(0 360 150)"/><path d="M360 150 L396 150 A36 36 0 0 0 385 125 Z" fill="#a04668" opacity=".85" transform="rotate(90 360 150)"/><path d="M360 150 L396 150 A36 36 0 0 0 385 125 Z" fill="#a04668" opacity=".85" transform="rotate(180 360 150)"/><path d="M360 150 L396 150 A36 36 0 0 0 385 125 Z" fill="#a04668" opacity=".85" transform="rotate(270 360 150)"/><circle cx="360" cy="150" r="9" fill="#7d3450"/></g></svg>