<svg xmlns="http://www.w3.org/2000/svg" viewBox="0 0 400 400" fill="none"><defs><linearGradient id="sky" x1="0" y1="0" x2="0" y2="1"><stop offset="0" stop-color="#f7e8ee"/><stop offset="1" stop-color="#ffffff"/></linearGradient></defs><rect width="400" height="400" fill="url(#sky)"/><g transform="translate(0,150) scale(0.83333)"><rect x="66" y="74" width="176" height="168" rx="10" fill="#ffffff" stroke="#7d3450" stroke-width="4"/><rect x="80" y="88" width="148" height="140" fill="#cfe6f2" opacity=".7"/><path d="M80 158 l148 -19 l0 96 l-148 -19z" fill="#a04668" opacity=".8"/><circle cx="344" cy="158" r="56" fill="#a04668" opacity=".16" stroke="#7d3450" stroke-width="3"/><path d="M344 158 L394 158 A50 50 0 0 0 379 123 Z" fill="#a04668" opacity=".85" transform="rotate(0 344 158)"/><path d="M344 158 L394 158 A50 50 0 0 0 379 123 Z" fill="#a04668" opacity=".85" transform="rotate(90 344 158)"/><path d="M344 158 L394 158 A50 50 0 0 0 379 123 Z" fill="#a04668" opacity=".85" transform="rotate(180 344 158)"/><path d="M344 158 L394 158 A50 50 0 0 0 379 123 Z" fill="#a04668" opacity=".85" transform="rotate(270 344 158)"/><circle cx="344" cy="158" r="13" fill="#7d3450"/></g></svg>