<svg xmlns="http://www.w3.org/2000/svg" viewBox="0 0 400 400" fill="none"><defs><linearGradient id="sky" x1="0" y1="0" x2="0" y2="1"><stop offset="0" stop-color="#f7e8ee"/><stop offset="1" stop-color="#ffffff"/></linearGradient></defs><rect width="400" height="400" fill="url(#sky)"/><g transform="translate(0,150) scale(0.83333)"><rect x="92" y="106" width="214" height="112" rx="12" fill="#ffffff" stroke="#7d3450" stroke-width="3"/><rect x="112" y="124" width="78" height="78" rx="4" fill="#cfe6f2" opacity=".4" stroke="#7d3450" stroke-width="2.5"/><path d="M112 124 L190 202" stroke="#a04668" stroke-width="4" stroke-linecap="round"/><path d="M190 124 L112 202" stroke="#cfe6f2" stroke-width="5" stroke-linecap="round"/><rect x="206" y="130" width="86" height="66" rx="4" fill="#cfe6f2"/><path d="M212 144 q37 -8 74 0" stroke="#7d3450" stroke-width="2" fill="none" opacity=".55"/><path d="M212 162 q37 -8 74 0" stroke="#7d3450" stroke-width="2" fill="none" opacity=".55"/><path d="M212 180 q37 -8 74 0" stroke="#7d3450" stroke-width="2" fill="none" opacity=".55"/><text x="249" y="170" font-family="sans-serif" font-size="20" fill="#7d3450" text-anchor="middle" opacity=".5">✳</text><rect x="392" y="92" width="26" height="150" fill="#d8cbb8"/><rect x="388" y="112" width="30" height="94" rx="3" fill="#efe6d6" stroke="#7d3450" stroke-width="2.5"/><line x1="392" y1="122" x2="414" y2="122" stroke="#7d3450" stroke-width="2.5" opacity=".7"/><line x1="392" y1="138" x2="414" y2="138" stroke="#7d3450" stroke-width="2.5" opacity=".7"/><line x1="392" y1="154" x2="414" y2="154" stroke="#7d3450" stroke-width="2.5" opacity=".7"/><line x1="392" y1="170" x2="414" y2="170" stroke="#7d3450" stroke-width="2.5" opacity=".7"/><line x1="392" y1="186" x2="414" y2="186" stroke="#7d3450" stroke-width="2.5" opacity=".7"/><rect x="306" y="124" width="84" height="20" fill="#eef1f5" stroke="#7d3450" stroke-width="2.5"/><rect x="306" y="180" width="84" height="20" fill="#eef1f5" stroke="#7d3450" stroke-width="2.5"/><path d="M318 134 H384" stroke="#a04668" stroke-width="4" stroke-dasharray="2 8" stroke-linecap="round"/><path d="M376 127 l12 7 l-12 7" fill="none" stroke="#a04668" stroke-width="4" stroke-linecap="round" stroke-linejoin="round"/><path d="M384 190 H312" stroke="#cfe6f2" stroke-width="4" stroke-dasharray="2 8" stroke-linecap="round"/><path d="M320 183 l-12 7 l12 7" fill="none" stroke="#cfe6f2" stroke-width="4" stroke-linecap="round" stroke-linejoin="round"/><path d="M92 138 H48" stroke="#cfe6f2" stroke-width="5" stroke-linecap="round"/><path d="M56 131 l-12 7 l12 7" fill="none" stroke="#cfe6f2" stroke-width="5" stroke-linecap="round" stroke-linejoin="round"/><path d="M48 186 H92" stroke="#a04668" stroke-width="5" stroke-linecap="round"/><path d="M84 179 l12 7 l-12 7" fill="none" stroke="#a04668" stroke-width="5" stroke-linecap="round" stroke-linejoin="round"/></g></svg>