<svg xmlns="http://www.w3.org/2000/svg" viewBox="0 0 400 400" fill="none"><defs><linearGradient id="sky" x1="0" y1="0" x2="0" y2="1"><stop offset="0" stop-color="#f7e8ee"/><stop offset="1" stop-color="#ffffff"/></linearGradient></defs><rect width="400" height="400" fill="url(#sky)"/><g transform="translate(0,150) scale(0.83333)"><rect x="104" y="104" width="220" height="66" rx="16" fill="#ffffff" stroke="#7d3450" stroke-width="3"/><rect x="104" y="150" width="220" height="12" fill="#a04668"/><circle cx="296" cy="126" r="5" fill="#a04668"/><text x="196" y="140" font-family="sans-serif" font-size="22" fill="#7d3450" text-anchor="middle" opacity=".5">✳</text><path d="M144 178 q-8 20 0 42" stroke="#cfe6f2" stroke-width="6" fill="none" stroke-linecap="round"/><path d="M184 178 q-8 20 0 42" stroke="#cfe6f2" stroke-width="6" fill="none" stroke-linecap="round"/><path d="M224 178 q-8 20 0 42" stroke="#cfe6f2" stroke-width="6" fill="none" stroke-linecap="round"/><path d="M264 178 q-8 20 0 42" stroke="#cfe6f2" stroke-width="6" fill="none" stroke-linecap="round"/><path d="M304 178 q-8 20 0 42" stroke="#cfe6f2" stroke-width="6" fill="none" stroke-linecap="round"/><rect x="338" y="96" width="72" height="88" rx="10" fill="#eef1f5" stroke="#7d3450" stroke-width="2.5"/><rect x="324" y="120" width="16" height="30" fill="#eef1f5" stroke="#7d3450" stroke-width="2"/><path d="M474 116 H386" stroke="#cfe6f2" stroke-width="5" stroke-dasharray="2 8" stroke-linecap="round"/><path d="M394 109 l-12 7 l12 7" fill="none" stroke="#cfe6f2" stroke-width="5" stroke-linecap="round" stroke-linejoin="round"/><path d="M386 164 H474" stroke="#a04668" stroke-width="5" stroke-dasharray="2 8" stroke-linecap="round"/><path d="M466 157 l12 7 l-12 7" fill="none" stroke="#a04668" stroke-width="5" stroke-linecap="round" stroke-linejoin="round"/></g></svg>