<svg xmlns="http://www.w3.org/2000/svg" viewBox="0 0 400 400" fill="none"><defs><linearGradient id="sky" x1="0" y1="0" x2="0" y2="1"><stop offset="0" stop-color="#f7e8ee"/><stop offset="1" stop-color="#ffffff"/></linearGradient></defs><rect width="400" height="400" fill="url(#sky)"/><g transform="translate(0,150) scale(0.83333)"><rect x="0" y="232" width="480" height="68" fill="#efd4de"/><line x1="448" y1="56" x2="460" y2="56" stroke="#f4b740" stroke-width="5" stroke-linecap="round" opacity=".85"/><line x1="443" y1="75" x2="453" y2="81" stroke="#f4b740" stroke-width="5" stroke-linecap="round" opacity=".85"/><line x1="429" y1="89" x2="435" y2="99" stroke="#f4b740" stroke-width="5" stroke-linecap="round" opacity=".85"/><line x1="410" y1="94" x2="410" y2="106" stroke="#f4b740" stroke-width="5" stroke-linecap="round" opacity=".85"/><line x1="391" y1="89" x2="385" y2="99" stroke="#f4b740" stroke-width="5" stroke-linecap="round" opacity=".85"/><line x1="377" y1="75" x2="367" y2="81" stroke="#f4b740" stroke-width="5" stroke-linecap="round" opacity=".85"/><line x1="372" y1="56" x2="360" y2="56" stroke="#f4b740" stroke-width="5" stroke-linecap="round" opacity=".85"/><line x1="377" y1="37" x2="367" y2="31" stroke="#f4b740" stroke-width="5" stroke-linecap="round" opacity=".85"/><line x1="391" y1="23" x2="385" y2="13" stroke="#f4b740" stroke-width="5" stroke-linecap="round" opacity=".85"/><line x1="410" y1="18" x2="410" y2="6" stroke="#f4b740" stroke-width="5" stroke-linecap="round" opacity=".85"/><line x1="429" y1="23" x2="435" y2="13" stroke="#f4b740" stroke-width="5" stroke-linecap="round" opacity=".85"/><line x1="443" y1="37" x2="453" y2="31" stroke="#f4b740" stroke-width="5" stroke-linecap="round" opacity=".85"/><circle cx="410" cy="56" r="30" fill="#f4b740"/><rect x="120" y="110" width="240" height="66" rx="14" fill="#ffffff" stroke="#7d3450" stroke-width="3"/><rect x="120" y="150" width="240" height="10" fill="#a04668"/><circle cx="330" cy="128" r="4" fill="#a04668"/><path d="M160 182 q-8 20 0 40" stroke="#cfe6f2" stroke-width="6" fill="none" stroke-linecap="round"/><path d="M200 182 q-8 20 0 40" stroke="#cfe6f2" stroke-width="6" fill="none" stroke-linecap="round"/><path d="M240 182 q-8 20 0 40" stroke="#cfe6f2" stroke-width="6" fill="none" stroke-linecap="round"/><path d="M280 182 q-8 20 0 40" stroke="#cfe6f2" stroke-width="6" fill="none" stroke-linecap="round"/><path d="M320 182 q-8 20 0 40" stroke="#cfe6f2" stroke-width="6" fill="none" stroke-linecap="round"/><text x="240" y="140" font-family="sans-serif" font-size="18" fill="#7d3450" text-anchor="middle" opacity=".6">✳</text></g></svg>