<svg xmlns="http://www.w3.org/2000/svg" viewBox="0 0 480 300" fill="none"><defs><linearGradient id="sky" x1="0" y1="0" x2="0" y2="1"><stop offset="0" stop-color="#f7e8ee"/><stop offset="1" stop-color="#ffffff"/></linearGradient></defs><rect width="480" height="300" fill="url(#sky)"/><line x1="448" y1="58" x2="460" y2="58" stroke="#f4b740" stroke-width="5" stroke-linecap="round" opacity=".85"/><line x1="443" y1="77" x2="453" y2="83" stroke="#f4b740" stroke-width="5" stroke-linecap="round" opacity=".85"/><line x1="429" y1="91" x2="435" y2="101" stroke="#f4b740" stroke-width="5" stroke-linecap="round" opacity=".85"/><line x1="410" y1="96" x2="410" y2="108" stroke="#f4b740" stroke-width="5" stroke-linecap="round" opacity=".85"/><line x1="391" y1="91" x2="385" y2="101" stroke="#f4b740" stroke-width="5" stroke-linecap="round" opacity=".85"/><line x1="377" y1="77" x2="367" y2="83" stroke="#f4b740" stroke-width="5" stroke-linecap="round" opacity=".85"/><line x1="372" y1="58" x2="360" y2="58" stroke="#f4b740" stroke-width="5" stroke-linecap="round" opacity=".85"/><line x1="377" y1="39" x2="367" y2="33" stroke="#f4b740" stroke-width="5" stroke-linecap="round" opacity=".85"/><line x1="391" y1="25" x2="385" y2="15" stroke="#f4b740" stroke-width="5" stroke-linecap="round" opacity=".85"/><line x1="410" y1="20" x2="410" y2="8" stroke="#f4b740" stroke-width="5" stroke-linecap="round" opacity=".85"/><line x1="429" y1="25" x2="435" y2="15" stroke="#f4b740" stroke-width="5" stroke-linecap="round" opacity=".85"/><line x1="443" y1="39" x2="453" y2="33" stroke="#f4b740" stroke-width="5" stroke-linecap="round" opacity=".85"/><circle cx="410" cy="58" r="30" fill="#f4b740"/><rect x="0" y="232" width="480" height="68" fill="#efd4de"/><rect x="120" y="150" width="240" height="90" rx="6" fill="#ffffff" stroke="#7d3450" stroke-width="3"/><g transform="skewX(-12)"><rect x="175" y="80" width="60" height="34" rx="3" fill="#a04668" stroke="#7d3450" stroke-width="2"/><rect x="241" y="80" width="60" height="34" rx="3" fill="#a04668" stroke="#7d3450" stroke-width="2"/><rect x="307" y="80" width="60" height="34" rx="3" fill="#a04668" stroke="#7d3450" stroke-width="2"/><rect x="175" y="120" width="60" height="34" rx="3" fill="#a04668" stroke="#7d3450" stroke-width="2"/><rect x="241" y="120" width="60" height="34" rx="3" fill="#a04668" stroke="#7d3450" stroke-width="2"/><rect x="307" y="120" width="60" height="34" rx="3" fill="#a04668" stroke="#7d3450" stroke-width="2"/></g><line x1="240" y1="60" x2="200" y2="110" stroke="#f4b740" stroke-width="3" opacity=".5" stroke-linecap="round"/><line x1="240" y1="60" x2="230" y2="110" stroke="#f4b740" stroke-width="3" opacity=".5" stroke-linecap="round"/><line x1="240" y1="60" x2="260" y2="110" stroke="#f4b740" stroke-width="3" opacity=".5" stroke-linecap="round"/></svg>